<svg width="500" height="500" viewBox="0 0 500 500" fill="none" xmlns="http://www.w3.org/2000/svg">
<g clip-path="url(#clip0_503_2)">
<path d="M471.836 7.006H0.721771V472.17H471.836V7.006Z" fill="#263238"/>
<path d="M471.836 472.913H0.721772C0.530346 472.913 0.34676 472.835 0.211401 472.695C0.076043 472.556 0 472.367 0 472.17V7.00599C0 6.80874 0.076043 6.61958 0.211401 6.4801C0.34676 6.34062 0.530346 6.26225 0.721772 6.26225H471.836C472.028 6.26225 472.211 6.34062 472.347 6.4801C472.482 6.61958 472.558 6.80874 472.558 7.00599V472.17C472.558 472.367 472.482 472.556 472.347 472.695C472.211 472.835 472.028 472.913 471.836 472.913ZM1.44354 471.426H471.115V7.74973H1.44354V471.426Z" fill="#263238"/>
<path d="M479.66 0.743729H8.54575V465.907H479.66V0.743729Z" fill="white"/>
<path d="M479.66 466.651H8.54575C8.35432 466.651 8.17073 466.573 8.03538 466.433C7.90002 466.294 7.82397 466.105 7.82397 465.907V0.743738C7.82397 0.546486 7.90002 0.357313 8.03538 0.217835C8.17073 0.0783573 8.35432 0 8.54575 0H479.66C479.852 0 480.035 0.0783573 480.171 0.217835C480.306 0.357313 480.382 0.546486 480.382 0.743738V465.907C480.379 466.103 480.301 466.29 480.167 466.429C480.032 466.568 479.851 466.647 479.66 466.651V466.651ZM9.26752 465.164H478.939V1.48748H9.26752V465.164Z" fill="#263238"/>
<path d="M239.975 441.959C239.784 441.955 239.603 441.876 239.468 441.737C239.334 441.598 239.257 441.411 239.253 441.215V23.2344C239.257 23.0383 239.334 22.8513 239.468 22.7127C239.603 22.574 239.784 22.4944 239.975 22.4906C240.166 22.4906 240.35 22.569 240.485 22.7085C240.62 22.8479 240.696 23.0371 240.696 23.2344V441.215C240.696 441.412 240.62 441.602 240.485 441.741C240.35 441.881 240.166 441.959 239.975 441.959Z" fill="#263238"/>
<g opacity="0.2">
<path opacity="0.2" d="M296.056 88.014H265.338V102.398H296.056V88.014Z" fill="black"/>
<path opacity="0.2" d="M313.234 70.1345H282.516V84.5184H313.234V70.1345Z" fill="black"/>
<path opacity="0.2" d="M331.928 88.014H301.21V102.398H331.928V88.014Z" fill="black"/>
<path opacity="0.2" d="M385.397 38.5108H354.679V52.8947H385.397V38.5108Z" fill="black"/>
<path opacity="0.2" d="M402.575 20.6164H371.857V35.0003H402.575V20.6164Z" fill="black"/>
<path opacity="0.2" d="M421.269 38.5108H390.551V52.8947H421.269V38.5108Z" fill="black"/>
<path opacity="0.2" d="M331.928 133.932H301.21V148.316H331.928V133.932Z" fill="black"/>
<path opacity="0.2" d="M349.106 116.038H318.388V130.422H349.106V116.038Z" fill="black"/>
<path opacity="0.2" d="M367.8 133.932H337.082V148.316H367.8V133.932Z" fill="black"/>
<path opacity="0.2" d="M427.982 269.278H397.263V283.662H427.982V269.278Z" fill="black"/>
<path opacity="0.2" d="M445.16 251.383H414.441V265.767H445.16V251.383Z" fill="black"/>
<path opacity="0.2" d="M463.854 269.278H433.135V283.662H463.854V269.278Z" fill="black"/>
<path opacity="0.2" d="M427.982 418.338H397.263V432.722H427.982V418.338Z" fill="black"/>
<path opacity="0.2" d="M445.16 400.443H414.441V414.827H445.16V400.443Z" fill="black"/>
<path opacity="0.2" d="M463.854 418.338H433.135V432.722H463.854V418.338Z" fill="black"/>
<path opacity="0.2" d="M304.154 302.062H273.436V316.446H304.154V302.062Z" fill="black"/>
<path opacity="0.2" d="M321.333 284.182H290.614V298.566H321.333V284.182Z" fill="black"/>
<path opacity="0.2" d="M340.027 302.062H309.308V316.446H340.027V302.062Z" fill="black"/>
<path opacity="0.2" d="M304.154 353.945H273.436V368.329H304.154V353.945Z" fill="black"/>
<path opacity="0.2" d="M321.333 336.051H290.614V350.435H321.333V336.051Z" fill="black"/>
<path opacity="0.2" d="M340.027 353.945H309.308V368.329H340.027V353.945Z" fill="black"/>
<path opacity="0.2" d="M376.476 353.945H345.757V368.329H376.476V353.945Z" fill="black"/>
<path opacity="0.2" d="M393.654 336.051H362.936V350.435H393.654V336.051Z" fill="black"/>
<path opacity="0.2" d="M412.348 353.945H381.629V368.329H412.348V353.945Z" fill="black"/>
</g>
<path d="M201.88 265.872H47.8679V292.78H201.88V265.872Z" fill="white"/>
<path d="M201.879 293.524H47.8968C47.7053 293.524 47.5217 293.445 47.3864 293.306C47.251 293.166 47.175 292.977 47.175 292.78V265.872C47.175 265.674 47.251 265.485 47.3864 265.346C47.5217 265.206 47.7053 265.128 47.8968 265.128H201.879C202.071 265.128 202.255 265.206 202.39 265.346C202.525 265.485 202.601 265.674 202.601 265.872V292.78C202.601 292.977 202.525 293.166 202.39 293.306C202.255 293.445 202.071 293.524 201.879 293.524ZM48.5897 292.036H201.158V266.615H48.5897V292.036Z" fill="#263238"/>
<path d="M201.88 315.985H47.8679V342.893H201.88V315.985Z" fill="white"/>
<path d="M201.879 343.711H47.8968C47.7053 343.711 47.5217 343.633 47.3864 343.493C47.251 343.354 47.175 343.165 47.175 342.967V315.985C47.175 315.787 47.251 315.598 47.3864 315.459C47.5217 315.319 47.7053 315.241 47.8968 315.241H201.879C202.071 315.241 202.255 315.319 202.39 315.459C202.525 315.598 202.601 315.787 202.601 315.985V342.893C202.611 342.997 202.6 343.102 202.569 343.201C202.537 343.3 202.485 343.391 202.417 343.468C202.349 343.545 202.266 343.606 202.173 343.648C202.081 343.69 201.981 343.712 201.879 343.711ZM48.5897 342.224H201.158V316.728H48.5897V342.224Z" fill="#263238"/>
<path d="M167.595 380.675H82.1665C78.3078 380.675 75.1797 383.898 75.1797 387.874V405.397C75.1797 409.373 78.3078 412.596 82.1665 412.596H167.595C171.454 412.596 174.582 409.373 174.582 405.397V387.874C174.582 383.898 171.454 380.675 167.595 380.675Z" fill="#263238"/>
<path d="M167.581 413.325H82.1665C80.1221 413.325 78.1614 412.488 76.7158 410.999C75.2701 409.509 74.458 407.489 74.458 405.382V387.874C74.458 385.768 75.2701 383.747 76.7158 382.258C78.1614 380.768 80.1221 379.931 82.1665 379.931H167.581C169.627 379.931 171.589 380.768 173.037 382.257C174.485 383.746 175.3 385.766 175.304 387.874V405.382C175.3 407.49 174.485 409.51 173.037 410.999C171.589 412.489 169.627 413.325 167.581 413.325V413.325ZM82.1665 381.419C80.5049 381.419 78.9114 382.099 77.7365 383.309C76.5616 384.52 75.9015 386.162 75.9015 387.874V405.382C75.9015 407.094 76.5616 408.736 77.7365 409.947C78.9114 411.157 80.5049 411.838 82.1665 411.838H167.581C168.405 411.839 169.221 411.674 169.983 411.35C170.745 411.027 171.437 410.552 172.02 409.952C172.604 409.352 173.066 408.64 173.382 407.856C173.698 407.072 173.86 406.231 173.86 405.382V387.874C173.86 387.025 173.698 386.185 173.382 385.4C173.066 384.616 172.604 383.904 172.02 383.304C171.437 382.705 170.745 382.229 169.983 381.906C169.221 381.582 168.405 381.417 167.581 381.419H82.1665Z" fill="#263238"/>
<path d="M40.1594 192.881V186.247C41.0677 186.262 41.9755 186.197 42.8732 186.054C43.4997 185.967 44.0925 185.71 44.5911 185.31C45.0331 184.886 45.3444 184.338 45.4861 183.733C45.6852 182.856 45.7773 181.956 45.7603 181.056V145.356H54.9124V181.413C54.968 183.577 54.6653 185.735 54.0174 187.794C53.4817 189.424 52.3609 190.781 50.8849 191.587C48.9198 192.535 46.758 192.97 44.5911 192.851L40.1594 192.881Z" fill="#263238"/>
<path d="M74.2126 192.316C71.4911 192.457 68.7843 191.824 66.3886 190.486C64.4784 189.271 63.0233 187.426 62.26 185.25C61.3662 182.634 60.9407 179.872 61.0042 177.099V159.844C60.9402 157.086 61.3658 154.338 62.26 151.737C63.0136 149.579 64.4735 147.759 66.3886 146.591C68.853 145.419 71.5347 144.813 74.2487 144.813C76.9626 144.813 79.6443 145.419 82.1087 146.591C84.0297 147.757 85.5027 149.569 86.2806 151.723C87.1638 154.321 87.5844 157.062 87.522 159.814V177.114C87.5829 179.885 87.1624 182.646 86.2806 185.265C85.5102 187.45 84.0382 189.297 82.1087 190.501C79.6861 191.836 76.9559 192.463 74.2126 192.316V192.316ZM74.2126 185.503C75.149 185.59 76.0813 185.296 76.8109 184.685C77.3951 184.077 77.7833 183.298 77.9225 182.454C78.1154 181.475 78.2122 180.478 78.2112 179.479V157.553C78.2165 156.554 78.1197 155.557 77.9225 154.579C77.7831 153.743 77.3945 152.974 76.8109 152.377C76.0835 151.761 75.151 151.462 74.2126 151.544C73.3063 151.473 72.4094 151.773 71.7152 152.377C71.137 152.978 70.7494 153.746 70.6037 154.579C70.4116 155.558 70.3196 156.555 70.3294 157.553V179.449C70.3284 180.446 70.4105 181.442 70.5749 182.424C70.7042 183.265 71.0823 184.044 71.6575 184.655C72.3695 185.27 73.2862 185.574 74.2126 185.503Z" fill="#263238"/>
<path d="M93.7292 191.676V145.386H102.824V191.676H93.7292Z" fill="#263238"/>
<path d="M109.709 191.676V145.386H116.09L126.065 169.498V145.386H133.614V191.676H127.508L117.533 166.077V191.676H109.709Z" fill="#263238"/>
<path d="M166.946 192.316C164.202 192.468 161.471 191.84 159.05 190.501C157.165 189.318 155.756 187.475 155.08 185.31C154.261 182.642 153.875 179.852 153.939 177.054V145.386H162.976V178.363C162.975 179.494 163.062 180.623 163.236 181.74C163.35 182.721 163.73 183.649 164.333 184.417C164.673 184.778 165.086 185.057 165.543 185.234C165.999 185.412 166.488 185.483 166.975 185.444C167.468 185.488 167.965 185.419 168.429 185.241C168.893 185.064 169.314 184.782 169.66 184.417C170.269 183.655 170.646 182.723 170.742 181.74C170.892 180.621 170.969 179.493 170.973 178.363V145.386H180.01V177.114C180.074 179.912 179.689 182.701 178.869 185.369C178.189 187.508 176.792 189.327 174.929 190.501C172.482 191.856 169.718 192.484 166.946 192.316V192.316Z" fill="#263238"/>
<path d="M198.025 192.316C195.619 192.4 193.231 191.858 191.082 190.739C189.22 189.672 187.749 188.005 186.896 185.994C185.859 183.428 185.305 180.682 185.264 177.902L193.132 176.534C193.175 178.142 193.374 179.741 193.724 181.309C193.926 182.385 194.427 183.377 195.167 184.164C195.489 184.476 195.868 184.72 196.282 184.88C196.696 185.041 197.136 185.116 197.578 185.102C198.042 185.16 198.512 185.085 198.937 184.886C199.363 184.686 199.726 184.37 199.988 183.971C200.418 183.165 200.637 182.258 200.624 181.338C200.685 179.6 200.21 177.887 199.267 176.444C198.226 174.983 197.024 173.65 195.687 172.473L191.024 168.308C189.412 166.911 188.036 165.247 186.953 163.384C185.846 161.327 185.302 158.998 185.38 156.646C185.276 155.03 185.511 153.41 186.069 151.895C186.627 150.381 187.495 149.008 188.613 147.87C191.096 145.721 194.282 144.63 197.52 144.821C199.428 144.745 201.327 145.132 203.063 145.951C204.429 146.646 205.59 147.704 206.427 149.015C207.22 150.294 207.783 151.71 208.087 153.195C208.398 154.664 208.591 156.156 208.664 157.658L200.84 158.862C200.768 157.375 200.653 156.215 200.494 155.144C200.385 154.227 200.036 153.357 199.483 152.63C199.202 152.314 198.854 152.067 198.466 151.91C198.078 151.753 197.661 151.689 197.246 151.723C196.779 151.688 196.312 151.782 195.893 151.997C195.474 152.211 195.119 152.538 194.864 152.942C194.347 153.75 194.076 154.697 194.084 155.664C194.027 157.092 194.406 158.502 195.167 159.695C196.028 160.9 197.021 161.998 198.126 162.968L202.673 167.088C204.549 168.753 206.182 170.686 207.524 172.83C208.943 175.226 209.651 177.997 209.559 180.803C209.591 182.882 209.093 184.933 208.116 186.753C207.169 188.484 205.775 189.91 204.088 190.873C202.22 191.881 200.133 192.378 198.025 192.316Z" fill="#263238"/>
<path d="M75.0498 226.067V200.259H77.4028V226.067H75.0498Z" fill="#263238"/>
<path d="M84.9381 226.067V202.133H80.2032V200.259H91.8671V202.133H87.291V226.067H84.9381Z" fill="#263238"/>
<path d="M94.5954 207.548L94.0324 206.7C94.2862 206.612 94.5192 206.47 94.7157 206.283C94.9123 206.096 95.0681 205.868 95.1728 205.614C95.395 204.903 95.4927 204.158 95.4615 203.412H94.2201V200.259H96.8184V202.936C96.8564 203.993 96.6996 205.048 96.3565 206.045C96.1964 206.419 95.9538 206.75 95.6481 207.011C95.3424 207.271 94.982 207.455 94.5954 207.548Z" fill="#263238"/>
<path d="M105.35 226.379C104.163 226.425 102.987 226.126 101.957 225.516C101.066 224.919 100.363 224.066 99.9365 223.062C99.4578 221.89 99.1747 220.642 99.0993 219.373L101.178 218.733C101.265 219.712 101.448 220.679 101.727 221.619C101.952 222.41 102.393 223.117 102.997 223.657C103.676 224.197 104.522 224.466 105.379 224.416C106.324 224.475 107.255 224.155 107.977 223.523C108.314 223.141 108.57 222.692 108.729 222.203C108.888 221.714 108.947 221.196 108.901 220.682C108.929 219.629 108.647 218.592 108.093 217.707C107.441 216.745 106.685 215.861 105.841 215.074L101.423 210.716C100.708 210.017 100.122 209.19 99.6911 208.276C99.3101 207.407 99.118 206.463 99.1282 205.51C99.0817 204.75 99.1972 203.988 99.4665 203.279C99.7358 202.57 100.152 201.93 100.687 201.404C101.82 200.389 103.286 199.857 104.787 199.917C105.598 199.907 106.405 200.023 107.183 200.259C107.874 200.477 108.503 200.865 109.016 201.389C109.55 201.966 109.954 202.657 110.2 203.412C110.516 204.375 110.715 205.374 110.792 206.387L108.785 206.923C108.725 205.977 108.551 205.043 108.266 204.141C108.064 203.433 107.643 202.811 107.068 202.371C106.328 201.936 105.484 201.726 104.633 201.766C103.782 201.805 102.959 202.093 102.261 202.594C101.891 202.94 101.61 203.376 101.444 203.861C101.277 204.347 101.231 204.867 101.308 205.376C101.298 206.037 101.431 206.693 101.698 207.295C102.045 207.989 102.509 208.613 103.069 209.139L107.501 213.438C108.476 214.392 109.334 215.466 110.056 216.636C110.781 217.814 111.157 219.183 111.138 220.578C111.18 221.71 110.931 222.834 110.417 223.835C109.947 224.682 109.244 225.366 108.396 225.799C107.437 226.229 106.395 226.428 105.35 226.379V226.379Z" fill="#263238"/>
<path d="M120.565 226.067V200.259H129.558V202.074H122.961V211.787H128.49V213.572H122.961V226.067H120.565Z" fill="#263238"/>
<path d="M132.503 226.067V200.259H138.161C139.437 200.192 140.708 200.458 141.857 201.032C142.732 201.538 143.414 202.335 143.791 203.293C144.201 204.42 144.397 205.616 144.369 206.819C144.374 207.73 144.272 208.639 144.066 209.526C143.884 210.325 143.523 211.068 143.012 211.698C142.459 212.324 141.716 212.739 140.904 212.873L144.744 226.067H142.449L138.84 213.378H134.914V226.067H132.503ZM134.856 211.593H138.032C138.877 211.642 139.719 211.457 140.471 211.058C141.054 210.695 141.494 210.131 141.713 209.466C141.984 208.613 142.111 207.717 142.088 206.819C142.17 205.572 141.889 204.329 141.28 203.249C140.878 202.804 140.379 202.465 139.823 202.261C139.268 202.056 138.674 201.992 138.089 202.074H134.856V211.593Z" fill="#263238"/>
<path d="M148.295 226.067V200.259H157.361V202.133H150.677V211.832H156.162V213.602H150.677V224.252H157.418V226.067H148.295Z" fill="#263238"/>
<path d="M160.609 226.067V200.259H169.674V202.133H162.99V211.832H168.433V213.602H162.99V224.252H169.732V226.067H160.609Z" fill="#263238"/>
<path d="M172.633 226.067V223.3H175.044V226.067H172.633ZM173.442 220.518L172.662 200.259H175.073L174.25 220.518H173.442Z" fill="#263238"/>
<path d="M99.8643 286.19C99.1822 286.233 98.5048 286.051 97.93 285.67C97.4629 285.303 97.14 284.775 97.0205 284.182C96.8488 283.467 96.7663 282.732 96.7751 281.996V274.097H98.4208V282.07C98.4158 282.538 98.4496 283.006 98.5218 283.468C98.5703 283.837 98.7206 284.183 98.9549 284.465C99.2328 284.718 99.5947 284.851 99.9654 284.837C100.15 284.85 100.334 284.823 100.508 284.759C100.682 284.695 100.841 284.595 100.976 284.465C101.21 284.183 101.36 283.837 101.409 283.468C101.474 283.005 101.508 282.538 101.51 282.07V274.097H102.953V281.996C102.986 282.741 102.918 283.487 102.751 284.212C102.631 284.8 102.314 285.327 101.856 285.7C101.264 286.086 100.563 286.259 99.8643 286.19V286.19Z" fill="#CCCCCC"/>
<path d="M107.4 286.19C106.816 286.212 106.239 286.057 105.74 285.744C105.302 285.443 104.956 285.02 104.744 284.525C104.502 283.95 104.365 283.335 104.339 282.71L105.783 282.323C105.809 282.735 105.872 283.143 105.971 283.543C106.051 283.899 106.22 284.227 106.461 284.495C106.585 284.625 106.734 284.726 106.898 284.793C107.062 284.859 107.238 284.89 107.414 284.882C107.59 284.896 107.766 284.869 107.931 284.805C108.095 284.741 108.244 284.64 108.367 284.51C108.593 284.22 108.707 283.854 108.684 283.483C108.706 283.02 108.584 282.562 108.338 282.174C108.066 281.818 107.761 281.489 107.429 281.193L105.494 279.422C105.141 279.116 104.856 278.736 104.657 278.307C104.464 277.837 104.37 277.33 104.383 276.819C104.362 276.449 104.416 276.079 104.54 275.731C104.664 275.383 104.856 275.065 105.104 274.796C105.652 274.299 106.367 274.042 107.097 274.082C107.503 274.076 107.907 274.136 108.295 274.261C108.627 274.375 108.929 274.569 109.175 274.826C109.422 275.105 109.609 275.435 109.724 275.793C109.876 276.229 109.969 276.684 109.998 277.147L108.627 277.533C108.607 277.167 108.554 276.803 108.468 276.448C108.393 276.143 108.233 275.869 108.006 275.659C107.753 275.441 107.426 275.334 107.097 275.362C106.754 275.339 106.417 275.456 106.158 275.689C106.042 275.818 105.952 275.971 105.895 276.137C105.838 276.303 105.815 276.48 105.826 276.656C105.815 276.968 105.874 277.279 105.999 277.563C106.151 277.833 106.346 278.075 106.577 278.277L108.54 280.047C108.991 280.451 109.381 280.922 109.695 281.445C110.034 282.029 110.204 282.7 110.186 283.379C110.194 283.899 110.069 284.412 109.825 284.867C109.602 285.284 109.266 285.625 108.858 285.848C108.406 286.084 107.906 286.201 107.4 286.19Z" fill="#CCCCCC"/>
<path d="M111.413 286.057V274.157H115.888V275.391H113.001V279.333H115.325V280.508H113.001V284.881H115.888V286.071L111.413 286.057Z" fill="#CCCCCC"/>
<path d="M117.187 286.057V274.157H119.511C120.165 274.14 120.817 274.251 121.431 274.484C121.907 274.672 122.302 275.032 122.542 275.496C122.808 276.065 122.932 276.694 122.903 277.325C122.91 277.746 122.862 278.167 122.759 278.575C122.681 278.927 122.528 279.257 122.311 279.541C122.09 279.801 121.806 279.996 121.489 280.107L123.12 286.057H121.561L120.117 280.464H118.861V286.057H117.187ZM118.804 279.274H119.41C119.788 279.29 120.166 279.229 120.521 279.095C120.661 279.046 120.789 278.968 120.899 278.865C121.008 278.763 121.096 278.639 121.157 278.5C121.306 278.123 121.375 277.717 121.359 277.31C121.4 276.785 121.268 276.261 120.983 275.823C120.789 275.643 120.56 275.507 120.311 275.425C120.062 275.343 119.799 275.316 119.54 275.347H118.832L118.804 279.274Z" fill="#CCCCCC"/>
<path d="M124.636 286.057V274.157H125.733L129.009 282.07V274.157H130.352V286.057H129.327L126.007 277.92V286.057H124.636Z" fill="#CCCCCC"/>
<path d="M131.536 286.057L133.99 274.157H135.549L138.017 286.057H136.487L135.953 283.082H133.6L133.051 286.057H131.536ZM133.816 281.862H135.751L134.769 276.507L133.816 281.862Z" fill="#CCCCCC"/>
<path d="M139.158 286.057L139.36 274.157H140.948L142.983 283.825L145.047 274.157H146.606L146.823 286.057H145.524L145.394 277.414L143.445 286.057H142.535L140.587 277.414L140.471 286.057H139.158Z" fill="#CCCCCC"/>
<path d="M148.598 286.057V274.157H153.073V275.391H150.186V279.333H152.51V280.508H150.186V284.881H153.073V286.071L148.598 286.057Z" fill="#CCCCCC"/>
<path d="M95.8224 335.292V323.392H98.7095C99.2865 323.365 99.8599 323.499 100.37 323.779C100.786 324.041 101.106 324.439 101.279 324.909C101.481 325.476 101.579 326.076 101.568 326.68C101.584 327.243 101.476 327.803 101.25 328.316C101.045 328.764 100.713 329.138 100.297 329.387C99.8146 329.654 99.2713 329.782 98.7239 329.759H97.4536V335.292H95.8224ZM97.4247 328.569H98.1754C98.5475 328.58 98.9188 328.525 99.2725 328.405C99.3986 328.355 99.5136 328.279 99.6103 328.182C99.7071 328.085 99.7837 327.968 99.8354 327.84C99.9655 327.473 100.024 327.084 100.009 326.694C100.019 326.26 99.9802 325.826 99.8932 325.4C99.8629 325.261 99.8015 325.13 99.7138 325.019C99.6261 324.908 99.5146 324.82 99.3879 324.761C99.0036 324.622 98.5966 324.561 98.1898 324.582H97.4247V328.569Z" fill="#CCCCCC"/>
<path d="M101.495 335.292L103.95 323.392H105.509L107.977 335.292H106.447L105.913 332.317H103.56L103.011 335.292H101.495ZM103.776 331.112H105.638L104.671 325.742L103.776 331.112Z" fill="#CCCCCC"/>
<path d="M111.86 335.426C111.279 335.445 110.704 335.295 110.2 334.995C109.754 334.699 109.403 334.275 109.19 333.775C108.954 333.199 108.822 332.584 108.8 331.96L110.243 331.573C110.269 331.985 110.332 332.393 110.431 332.793C110.514 333.148 110.683 333.475 110.922 333.745C111.185 333.984 111.524 334.115 111.875 334.115C112.225 334.115 112.564 333.984 112.827 333.745C113.054 333.456 113.167 333.09 113.145 332.719C113.171 332.253 113.044 331.792 112.784 331.41C112.518 331.048 112.218 330.714 111.889 330.413L109.969 328.673C109.612 328.364 109.326 327.978 109.132 327.542C108.935 327.073 108.841 326.565 108.858 326.055C108.835 325.685 108.888 325.313 109.012 324.965C109.136 324.617 109.33 324.299 109.579 324.032C109.848 323.78 110.162 323.586 110.504 323.461C110.846 323.335 111.209 323.282 111.571 323.303C111.979 323.293 112.385 323.359 112.77 323.496C113.1 323.607 113.397 323.802 113.636 324.062C113.882 324.338 114.074 324.661 114.199 325.014C114.344 325.456 114.437 325.916 114.473 326.382L113.102 326.754C113.077 326.392 113.019 326.034 112.928 325.683C112.856 325.377 112.701 325.098 112.481 324.88C112.213 324.677 111.889 324.567 111.557 324.567C111.225 324.567 110.901 324.677 110.633 324.88C110.514 325.01 110.423 325.165 110.366 325.334C110.309 325.503 110.287 325.683 110.301 325.861C110.29 326.169 110.349 326.475 110.474 326.754C110.621 327.032 110.816 327.279 111.052 327.483L113.001 329.238C113.458 329.669 113.848 330.171 114.155 330.725C114.501 331.307 114.676 331.978 114.661 332.659C114.669 333.179 114.544 333.692 114.3 334.147C114.073 334.561 113.738 334.901 113.333 335.128C112.873 335.351 112.367 335.453 111.86 335.426V335.426Z" fill="#CCCCCC"/>
<path d="M118.63 335.426C118.044 335.447 117.464 335.297 116.956 334.995C116.518 334.694 116.173 334.271 115.96 333.775C115.719 333.2 115.582 332.585 115.556 331.96L116.999 331.573C117.025 331.985 117.088 332.393 117.187 332.793C117.276 333.146 117.444 333.472 117.678 333.745C117.804 333.874 117.956 333.974 118.122 334.038C118.289 334.102 118.467 334.129 118.645 334.117C118.817 334.129 118.989 334.103 119.151 334.041C119.313 333.98 119.46 333.884 119.583 333.76C119.81 333.471 119.923 333.105 119.901 332.734C119.924 332.27 119.802 331.812 119.554 331.425C119.284 331.067 118.985 330.733 118.659 330.428L116.71 328.673C116.354 328.364 116.068 327.978 115.873 327.542C115.676 327.073 115.583 326.565 115.599 326.055C115.577 325.685 115.629 325.313 115.754 324.965C115.878 324.617 116.071 324.299 116.321 324.032C116.589 323.78 116.903 323.586 117.245 323.461C117.588 323.335 117.95 323.282 118.313 323.303C118.72 323.293 119.126 323.359 119.511 323.496C119.844 323.611 120.145 323.804 120.391 324.062C120.638 324.335 120.825 324.66 120.94 325.014C121.092 325.454 121.185 325.915 121.214 326.382L119.771 326.754C119.758 326.392 119.704 326.033 119.612 325.683C119.534 325.379 119.38 325.102 119.164 324.88C118.899 324.674 118.573 324.569 118.241 324.582C117.899 324.566 117.564 324.682 117.302 324.909C117.186 325.042 117.097 325.197 117.04 325.366C116.983 325.534 116.959 325.713 116.97 325.891C116.959 326.199 117.018 326.504 117.144 326.784C117.294 327.059 117.49 327.305 117.721 327.513L119.684 329.268C120.138 329.703 120.527 330.204 120.839 330.755C121.179 331.338 121.35 332.009 121.33 332.689C121.337 333.207 121.218 333.718 120.983 334.176C120.748 334.589 120.409 334.928 120.002 335.158C119.571 335.355 119.101 335.447 118.63 335.426V335.426Z" fill="#CCCCCC"/>
<path d="M124.13 335.292L122.239 323.392H123.582L124.823 331.945L126.382 323.437H127.523L129.096 331.99L130.309 323.392H131.622L129.76 335.292H128.591L126.974 326.486L125.357 335.292H124.13Z" fill="#CCCCCC"/>
<path d="M135.866 335.426C135.215 335.462 134.568 335.302 134.004 334.965C133.528 334.644 133.172 334.167 132.994 333.611C132.792 332.952 132.695 332.264 132.705 331.573V327.111C132.69 326.423 132.792 325.739 133.008 325.088C133.191 324.554 133.542 324.099 134.004 323.794C134.572 323.469 135.217 323.314 135.866 323.348C136.512 323.317 137.153 323.477 137.714 323.809C138.18 324.11 138.531 324.567 138.71 325.103C138.927 325.748 139.03 326.428 139.013 327.111V331.573C139.028 332.266 138.925 332.955 138.71 333.611C138.531 334.159 138.181 334.63 137.714 334.95C137.16 335.3 136.515 335.467 135.866 335.426ZM135.866 334.117C136.209 334.143 136.55 334.049 136.833 333.849C137.059 333.653 137.216 333.387 137.281 333.091C137.361 332.709 137.4 332.32 137.396 331.93V326.724C137.401 326.339 137.362 325.955 137.281 325.579C137.219 325.289 137.061 325.031 136.833 324.85C136.55 324.65 136.209 324.556 135.866 324.582C135.519 324.558 135.175 324.652 134.885 324.85C134.653 325.028 134.494 325.287 134.437 325.579C134.356 325.955 134.317 326.339 134.322 326.724V331.93C134.318 332.32 134.357 332.709 134.437 333.091C134.497 333.389 134.655 333.657 134.885 333.849C135.175 334.047 135.519 334.141 135.866 334.117Z" fill="#CCCCCC"/>
<path d="M140.601 335.292V323.392H142.925C143.574 323.372 144.22 323.478 144.831 323.705C145.312 323.898 145.711 324.262 145.957 324.731C146.222 325.3 146.346 325.929 146.318 326.561C146.325 326.982 146.276 327.402 146.173 327.81C146.096 328.158 145.943 328.484 145.726 328.762C145.505 329.029 145.214 329.225 144.888 329.327L146.534 335.277H144.975L143.532 329.699H142.276V335.277L140.601 335.292ZM142.218 328.524H142.824C143.202 328.538 143.58 328.477 143.936 328.345C144.212 328.236 144.439 328.024 144.571 327.75C144.714 327.372 144.778 326.966 144.759 326.561C144.798 326.038 144.671 325.516 144.398 325.073C144.2 324.899 143.97 324.768 143.722 324.689C143.474 324.609 143.213 324.583 142.954 324.612H142.247L142.218 328.524Z" fill="#CCCCCC"/>
<path d="M148.007 335.292V323.392H150.518C151.213 323.357 151.907 323.494 152.539 323.794C153.028 324.052 153.408 324.486 153.607 325.014C153.845 325.654 153.957 326.336 153.939 327.022V331.484C153.955 332.208 153.843 332.929 153.607 333.611C153.426 334.163 153.057 334.628 152.568 334.92C151.974 335.246 151.306 335.4 150.634 335.366L148.007 335.292ZM149.609 334.102H150.533C150.973 334.149 151.415 334.027 151.774 333.76C152.045 333.488 152.209 333.122 152.236 332.734C152.236 332.272 152.308 331.737 152.308 331.097V327.23C152.314 326.731 152.275 326.234 152.193 325.742C152.141 325.409 151.965 325.111 151.702 324.909C151.331 324.703 150.91 324.611 150.489 324.642H149.609V334.102Z" fill="#CCCCCC"/>
<path d="M95.346 406.066C94.4156 406.098 93.4923 405.888 92.661 405.456C91.9364 405.041 91.3636 404.394 91.0298 403.612C90.6231 402.613 90.4075 401.542 90.3947 400.458L93.455 399.938C93.47 400.558 93.5426 401.176 93.6715 401.782C93.7594 402.199 93.9537 402.584 94.2345 402.898C94.4895 403.141 94.8253 403.274 95.1728 403.27C95.354 403.293 95.5378 403.263 95.7035 403.184C95.8693 403.105 96.0104 402.98 96.1111 402.823C96.2831 402.511 96.368 402.156 96.3565 401.797C96.3789 401.122 96.1974 400.457 95.8368 399.893C95.4099 399.344 94.9258 398.846 94.3933 398.406L92.6466 396.74C92.0184 396.194 91.4819 395.546 91.0587 394.821C90.6321 394.02 90.4227 393.116 90.4524 392.203C90.4117 391.575 90.5029 390.946 90.7196 390.359C90.9364 389.771 91.2736 389.238 91.7083 388.797C92.6738 387.96 93.913 387.534 95.1728 387.607C95.9138 387.579 96.6507 387.732 97.3237 388.053C97.8557 388.317 98.3056 388.729 98.6228 389.243C98.9413 389.734 99.1621 390.285 99.2724 390.864C99.3988 391.436 99.4761 392.019 99.5034 392.604L96.4575 393.066C96.4575 392.515 96.4575 392.039 96.3276 391.578C96.2802 391.222 96.1461 390.884 95.9379 390.596C95.8232 390.478 95.6853 390.386 95.5334 390.327C95.3816 390.268 95.2192 390.243 95.0573 390.254C94.876 390.241 94.6945 390.278 94.5319 390.361C94.3693 390.445 94.2316 390.573 94.1334 390.73C93.932 391.043 93.8264 391.411 93.8303 391.786C93.8271 392.314 93.9725 392.83 94.2489 393.274C94.5892 393.741 94.9763 394.17 95.4037 394.553L97.1793 396.145C97.9023 396.795 98.5339 397.546 99.0559 398.376C99.6117 399.309 99.8879 400.391 99.8499 401.485C99.8628 402.282 99.6684 403.067 99.2869 403.761C98.9217 404.435 98.382 404.991 97.7279 405.367C97.0071 405.811 96.1857 406.052 95.346 406.066V406.066Z" fill="#03E1FF"/>
<path d="M101.467 405.813V387.83H105.003V405.813H101.467Z" fill="#03E1FF"/>
<path d="M112.134 406.081C111.147 406.134 110.168 405.869 109.334 405.322C108.633 404.777 108.125 404.008 107.89 403.136C107.579 402.075 107.428 400.971 107.443 399.863V393.839C107.422 392.715 107.578 391.595 107.905 390.522C108.17 389.636 108.726 388.874 109.478 388.365C110.412 387.815 111.479 387.552 112.553 387.607C113.552 387.564 114.546 387.784 115.44 388.246C116.153 388.652 116.708 389.298 117.014 390.076C117.351 390.966 117.513 391.917 117.49 392.872V393.913H114.011V392.649C114.015 392.226 113.986 391.803 113.924 391.385C113.887 391.066 113.75 390.769 113.535 390.537C113.248 390.305 112.887 390.194 112.524 390.224C112.144 390.202 111.77 390.336 111.485 390.596C111.268 390.875 111.128 391.209 111.081 391.563C111.022 391.982 110.993 392.405 110.994 392.828V400.8C110.989 401.255 111.033 401.709 111.124 402.154C111.186 402.513 111.358 402.841 111.615 403.091C111.913 403.314 112.272 403.434 112.64 403.434C113.008 403.434 113.366 403.314 113.665 403.091C113.924 402.829 114.101 402.492 114.17 402.124C114.274 401.671 114.323 401.206 114.314 400.741V398.748H112.611V396.531H117.533V405.769H115.195L114.978 404.147C114.76 404.685 114.406 405.152 113.953 405.501C113.423 405.891 112.785 406.094 112.134 406.081Z" fill="#03E1FF"/>
<path d="M120.074 405.813V387.83H122.557L126.44 397.201V387.83H129.327V405.813H126.96L123.076 395.862V405.813H120.074Z" fill="#03E1FF"/>
<path d="M142.247 406.066C141.179 406.127 140.116 405.885 139.172 405.367C138.441 404.903 137.893 404.186 137.627 403.344C137.304 402.307 137.153 401.22 137.18 400.131V387.83H140.702V400.637C140.701 401.075 140.73 401.512 140.789 401.946C140.841 402.331 140.99 402.695 141.222 403.002C141.511 403.253 141.876 403.39 142.254 403.39C142.632 403.39 142.997 403.253 143.286 403.002C143.529 402.702 143.68 402.334 143.719 401.946C143.778 401.512 143.807 401.075 143.806 400.637V387.83H147.314V400.131C147.34 401.22 147.189 402.307 146.866 403.344C146.601 404.182 146.059 404.897 145.336 405.367C144.386 405.883 143.319 406.125 142.247 406.066Z" fill="#03E1FF"/>
<path d="M149.797 405.813V387.83H155.325C156.219 387.793 157.107 388.003 157.895 388.44C158.55 388.852 159.057 389.473 159.338 390.21C159.691 391.096 159.858 392.049 159.829 393.006C159.872 394.038 159.653 395.063 159.194 395.981C158.79 396.659 158.182 397.182 157.462 397.469C156.657 397.792 155.799 397.949 154.936 397.93H153.319V405.724L149.797 405.813ZM153.348 395.401H154.604C155.013 395.422 155.42 395.335 155.787 395.148C155.931 395.058 156.057 394.939 156.156 394.799C156.255 394.658 156.326 394.499 156.365 394.33C156.479 393.868 156.533 393.393 156.523 392.917C156.532 392.452 156.488 391.988 156.394 391.533C156.335 391.187 156.149 390.878 155.874 390.671C155.482 390.431 155.029 390.322 154.575 390.358H153.348V395.401Z" fill="#03E1FF"/>
<path d="M166.354 68.2752H79.5681V127.715H166.354V68.2752Z" fill="#03E1FF"/>
<path d="M166.354 128.458H79.5681C79.3767 128.458 79.1931 128.38 79.0577 128.241C78.9223 128.101 78.8463 127.912 78.8463 127.715V68.2156C78.8463 68.0184 78.9223 67.8292 79.0577 67.6897C79.1931 67.5503 79.3767 67.4719 79.5681 67.4719H166.354C166.545 67.4719 166.729 67.5503 166.864 67.6897C167 67.8292 167.076 68.0184 167.076 68.2156V127.715C167.076 127.912 167 128.101 166.864 128.241C166.729 128.38 166.545 128.458 166.354 128.458ZM80.2899 126.971H165.632V68.9594H80.2899V126.971Z" fill="#263238"/>
<path d="M166.354 68.2752L122.961 97.995L79.5681 68.2752H166.354Z" fill="#263238"/>
<path d="M122.961 98.7387C122.819 98.7358 122.679 98.6948 122.557 98.6197L79.1639 68.8702C79.0373 68.7799 78.9413 68.6509 78.8896 68.5015C78.8378 68.3521 78.8328 68.1897 78.8752 68.0372C78.9215 67.8855 79.0138 67.753 79.1385 67.6593C79.2632 67.5656 79.4138 67.5156 79.5681 67.5166H166.354C166.507 67.5185 166.655 67.5704 166.777 67.6647C166.9 67.7591 166.99 67.891 167.035 68.0415C167.08 68.1921 167.077 68.3534 167.028 68.5023C166.978 68.6512 166.883 68.78 166.758 68.8702L123.365 98.6197C123.243 98.6948 123.103 98.7358 122.961 98.7387ZM81.9499 68.9892L122.961 97.1025L163.958 69.0189L81.9499 68.9892Z" fill="#263238"/>
<path d="M91.0731 76.4861V38.0794H154.762V76.1737L122.961 97.995L91.0731 76.4861Z" fill="white"/>
<path d="M122.961 98.7387C122.819 98.7357 122.679 98.6947 122.557 98.6197L90.6834 77.1108C90.5835 77.0417 90.5012 76.9489 90.4434 76.8401C90.3856 76.7314 90.3541 76.61 90.3513 76.4861V38.0794C90.3513 37.8821 90.4274 37.693 90.5627 37.5535C90.6981 37.414 90.8817 37.3357 91.0731 37.3357H154.719C154.91 37.3357 155.094 37.414 155.229 37.5535C155.365 37.693 155.441 37.8821 155.441 38.0794V76.1737C155.442 76.2968 155.414 76.4183 155.358 76.5273C155.303 76.6363 155.222 76.7295 155.123 76.7984L123.365 98.6197C123.243 98.6947 123.103 98.7357 122.961 98.7387V98.7387ZM91.7949 76.0844L122.961 97.1025L154.04 75.7869V38.7785H91.7949V76.0844Z" fill="#263238"/>
<path d="M141.554 52.1658H103.112C102.921 52.1658 102.737 52.0874 102.602 51.948C102.467 51.8085 102.39 51.6193 102.39 51.4221C102.39 51.2248 102.467 51.0357 102.602 50.8962C102.737 50.7567 102.921 50.6783 103.112 50.6783H141.554C141.745 50.6783 141.929 50.7567 142.064 50.8962C142.2 51.0357 142.276 51.2248 142.276 51.4221C142.276 51.6193 142.2 51.8085 142.064 51.948C141.929 52.0874 141.745 52.1658 141.554 52.1658Z" fill="#263238"/>
<path d="M141.554 62.1021H103.112C102.921 62.1021 102.737 62.0238 102.602 61.8843C102.467 61.7448 102.39 61.5557 102.39 61.3584C102.39 61.1612 102.467 60.972 102.602 60.8325C102.737 60.693 102.921 60.6147 103.112 60.6147H141.554C141.745 60.6147 141.929 60.693 142.064 60.8325C142.2 60.972 142.276 61.1612 142.276 61.3584C142.276 61.5557 142.2 61.7448 142.064 61.8843C141.929 62.0238 141.745 62.1021 141.554 62.1021Z" fill="#263238"/>
<path d="M141.554 72.0831H103.112C102.921 72.0831 102.737 72.0048 102.602 71.8653C102.467 71.7258 102.39 71.5366 102.39 71.3394C102.39 71.1421 102.467 70.953 102.602 70.8135C102.737 70.674 102.921 70.5957 103.112 70.5957H141.554C141.745 70.5957 141.929 70.674 142.064 70.8135C142.2 70.953 142.276 71.1421 142.276 71.3394C142.276 71.5366 142.2 71.7258 142.064 71.8653C141.929 72.0048 141.745 72.0831 141.554 72.0831Z" fill="#263238"/>
<path d="M79.5681 127.715L123.062 90.394L166.354 127.715H79.5681Z" fill="#03E1FF"/>
<path d="M166.354 128.458H79.5681C79.4212 128.457 79.2782 128.409 79.1582 128.322C79.0383 128.234 78.9471 128.111 78.8969 127.969C78.8467 127.827 78.8398 127.672 78.8772 127.525C78.9146 127.379 78.9945 127.248 79.1062 127.149L122.6 89.8138C122.73 89.7025 122.893 89.6416 123.062 89.6416C123.231 89.6416 123.394 89.7025 123.524 89.8138L166.83 127.135C166.942 127.233 167.022 127.364 167.059 127.511C167.097 127.657 167.09 127.812 167.04 127.954C166.989 128.096 166.898 128.219 166.778 128.307C166.658 128.394 166.515 128.442 166.368 128.444L166.354 128.458ZM81.5602 126.971H164.362L123.062 91.3608L81.5602 126.971Z" fill="#263238"/>
<path d="M336.143 242.563C336.143 242.563 331.394 269.248 330.672 277.147C329.951 285.045 329.229 317.175 334.685 338.966C337.947 352.052 342.459 364.772 348.154 376.941C348.154 376.941 351.791 392.352 353.928 396.487C356.064 400.622 374.354 432.573 374.354 432.573C374.354 432.573 373.257 445.722 372.535 447.983C371.813 450.244 369.244 464.137 369.98 468.272C370.716 472.408 371.799 475.04 370.702 480.306C369.605 485.572 368.147 490.823 370.702 495.344C373.257 499.866 379.464 500.223 381.283 497.591C382.918 495.429 384.116 492.952 384.806 490.305C385.495 487.658 385.662 484.895 385.296 482.18C384.199 474.743 380.547 464.896 381.283 460.761C382.026 457.509 383.125 454.355 384.56 451.36C384.56 451.36 398.432 480.678 399.154 482.939C399.876 485.2 401.348 494.586 402.041 497.591C402.734 500.595 406.79 496.46 408.248 494.616C409.706 492.771 415.177 484.843 414.023 479.577C412.868 474.312 409.692 464.926 409.692 464.926L415.134 472.363C415.24 472.537 415.405 472.664 415.597 472.72C415.789 472.776 415.994 472.757 416.174 472.667C416.353 472.576 416.493 472.421 416.568 472.23C416.642 472.04 416.646 471.827 416.578 471.634C415.553 468.02 414.167 463.23 413.691 462.322C412.954 460.835 412.593 455.926 409.677 451.806C406.762 447.686 398.735 451.419 398.735 451.419L392.528 431.13C392.528 431.13 403.846 392.798 401.651 380.006C399.457 367.213 398.375 357.842 399.096 355.209C399.818 352.577 413.691 312.92 413.691 304.635C413.691 296.35 414.051 276.447 409.677 265.544C406.7 258.32 403.287 251.295 399.457 244.511L336.143 242.563Z" fill="white"/>
<path d="M377.515 499.985H377.14C375.729 499.916 374.357 499.492 373.141 498.75C371.926 498.009 370.905 496.972 370.168 495.731C367.699 491.358 368.724 486.36 369.792 481.526L370.081 480.157C370.751 477.055 370.662 473.829 369.821 470.771C369.663 470.028 369.504 469.284 369.345 468.421C368.594 464.107 371.193 450.051 371.929 447.76C372.763 442.796 373.356 437.792 373.704 432.766C372.131 430.015 355.458 400.786 353.379 396.859C351.301 392.932 347.822 378.578 347.504 377.224C341.81 365.048 337.28 352.329 333.978 339.249C328.608 317.814 329.157 285.789 329.951 277.161C330.672 269.322 335.378 242.786 335.436 242.518L335.537 241.893H336.158L400.02 243.782L400.222 244.139C404.062 250.961 407.49 258.02 410.486 265.277C414.629 275.6 414.586 294.015 414.557 302.865V304.65C414.557 311.492 405.434 338.862 401.565 350.494C400.699 353.067 400.121 354.956 399.948 355.418C399.573 356.756 399.414 361.739 402.518 379.887C404.654 392.322 394.463 427.664 393.452 431.13L399.342 450.467C401.507 449.605 407.714 447.582 410.414 451.404C412.111 454.008 413.298 456.929 413.907 460.002C414.05 460.697 414.248 461.378 414.499 462.04C414.86 462.798 415.841 465.967 417.386 471.471C417.491 471.823 417.472 472.203 417.331 472.543C417.191 472.882 416.938 473.159 416.618 473.325C416.298 473.491 415.931 473.534 415.583 473.448C415.235 473.362 414.927 473.151 414.715 472.854L411.987 469.15C413.012 472.318 414.297 476.587 414.874 479.562C416.159 485.765 409.187 494.839 408.898 495.211C408.609 495.582 405.087 500.03 402.821 499.524C402.451 499.443 402.114 499.247 401.856 498.962C401.598 498.678 401.431 498.318 401.377 497.933C401.06 496.624 400.612 494.155 400.136 491.537C399.544 488.264 398.865 484.575 398.476 483.341C397.927 481.66 389.497 463.676 384.574 453.249C383.438 455.746 382.571 458.365 381.99 461.058C381.586 463.364 382.698 467.811 383.881 472.527C384.752 475.724 385.46 478.966 386.003 482.24C386.392 485.047 386.226 487.906 385.517 490.646C384.807 493.386 383.569 495.951 381.875 498.186C381.329 498.807 380.652 499.292 379.897 499.604C379.141 499.916 378.327 500.046 377.515 499.985V499.985ZM336.735 243.336C336.014 247.412 332.044 270.111 331.394 277.236C330.6 285.789 330.052 317.546 335.378 338.802C338.654 351.827 343.155 364.491 348.818 376.614V376.763C348.818 376.926 352.47 392.129 354.592 396.1C356.714 400.072 374.802 431.799 375.004 432.171L375.119 432.365V432.603C375.119 433.153 374.008 445.871 373.257 448.191C372.506 450.512 370.023 464.093 370.731 468.109C370.875 468.927 371.034 469.686 371.178 470.414C372.066 473.677 372.16 477.116 371.453 480.425L371.164 481.794C370.139 486.568 369.186 491.061 371.366 494.928C371.974 495.959 372.818 496.82 373.825 497.434C374.832 498.049 375.971 498.399 377.14 498.453C377.796 498.545 378.464 498.472 379.087 498.241C379.71 498.011 380.27 497.63 380.72 497.129C382.309 495.049 383.473 492.658 384.143 490.102C384.812 487.546 384.974 484.877 384.618 482.255C384.17 479.28 383.333 475.918 382.524 472.69C381.297 467.811 380.143 463.215 380.605 460.582C381.347 457.258 382.471 454.037 383.954 450.988L384.603 449.634L385.238 450.988C385.816 452.193 399.14 480.38 399.876 482.656C400.294 483.98 400.944 487.58 401.579 491.061C402.056 493.649 402.489 496.088 402.806 497.367C402.878 497.665 402.979 497.829 403.095 497.858C403.86 498.022 406.069 496.222 407.743 494.08C410.111 491.016 414.355 484.084 413.431 479.666C412.363 474.505 409.1 465.193 409.1 465.104L407.498 460.523L415.798 471.813L416.635 471.53L415.943 471.738C413.936 464.643 413.33 462.932 413.142 462.546C412.837 461.793 412.605 461.01 412.449 460.21C411.88 457.326 410.772 454.583 409.187 452.133C406.661 448.534 399.212 451.955 399.082 451.999L398.346 452.342L391.835 431.026V430.803C391.951 430.431 403.081 392.5 400.944 380.035C398.533 365.979 397.682 357.515 398.403 354.897C398.548 354.391 399.14 352.606 400.035 349.914C403.571 339.308 413.027 311.135 413.027 304.546V302.761C413.027 294.015 413.099 275.793 409.071 265.753C406.16 258.681 402.828 251.801 399.096 245.151L336.735 243.336Z" fill="#263238"/>
<path d="M397.566 447.046L392.673 431.071C392.673 431.071 403.99 392.738 401.796 379.946C399.602 367.154 398.519 357.783 399.241 355.15C399.962 352.517 412.55 312.757 413.835 304.576C416.113 291.417 414.721 277.862 409.822 265.485C406.845 258.261 403.431 251.236 399.602 244.452L336.086 242.563C336.086 242.563 331.336 269.248 330.615 277.147C329.893 285.045 329.171 317.175 334.628 338.966C337.908 352.054 342.439 364.774 348.154 376.941C348.154 376.941 351.791 392.352 353.928 396.487C356.064 400.622 374.354 432.573 374.354 432.573C374.354 432.573 373.719 440.129 373.098 444.77C375.621 446.664 378.555 447.895 381.644 448.355L384.531 451.33C384.531 451.33 392.904 455.123 397.566 447.046Z" fill="#263238"/>
<path d="M389.093 452.966C387.473 452.96 385.868 452.647 384.358 452.044L384.141 451.895L381.413 449.069C378.285 448.556 375.318 447.292 372.752 445.38L372.362 445.127L372.434 444.666C372.983 440.561 373.546 434.06 373.661 432.766C372.088 430.015 355.415 400.786 353.336 396.859C351.257 392.932 347.778 378.578 347.461 377.224C341.782 365.046 337.266 352.328 333.978 339.249C328.608 317.814 329.157 285.789 329.951 277.161C330.672 269.322 335.378 242.786 335.436 242.518L335.537 241.893H336.158L400.02 243.782L400.222 244.139C404.062 250.961 407.49 258.02 410.486 265.276C415.411 277.766 416.822 291.432 414.557 304.71C413.532 311.269 405.52 337.211 401.68 349.691C400.742 352.74 400.092 354.823 399.948 355.358C399.573 356.697 399.414 361.68 402.518 379.827C404.654 392.262 394.463 427.605 393.452 431.071L398.36 447.15L398.201 447.433C397.327 449.132 396.013 450.549 394.405 451.525C392.798 452.502 390.959 453.001 389.093 452.966V452.966ZM385.065 450.735C386.076 451.152 392.759 453.576 396.772 446.957L391.922 431.071V430.847C392.037 430.476 403.167 392.545 401.031 380.08C398.62 366.023 397.768 357.56 398.49 354.942C398.634 354.406 399.284 352.309 400.237 349.245C403.773 337.776 412.045 310.912 413.07 304.472C415.301 291.452 413.925 278.048 409.1 265.797C406.192 258.724 402.86 251.844 399.125 245.196L336.678 243.336C335.956 247.412 331.986 270.111 331.336 277.236C330.543 285.789 329.994 317.546 335.321 338.802C338.596 351.827 343.097 364.491 348.76 376.614V376.763C348.76 376.926 352.412 392.128 354.534 396.1C356.656 400.072 374.744 431.799 374.946 432.171L375.061 432.365V432.603C375.061 432.677 374.455 439.743 373.863 444.369C376.183 446.071 378.867 447.173 381.687 447.582H381.947L385.065 450.735Z" fill="#263238"/>
<path d="M388.14 416.062C387.981 416.064 387.827 416.01 387.701 415.911C387.575 415.811 387.486 415.67 387.447 415.512C385.787 408.937 383.52 400.087 382.135 395.193C379.623 386.268 371.655 363.524 371.568 363.286C371.561 363.227 371.561 363.167 371.568 363.108L365.029 294.877L352.917 286.8C352.757 286.694 352.644 286.526 352.603 286.333C352.563 286.141 352.598 285.94 352.701 285.774C352.809 285.611 352.975 285.496 353.163 285.455C353.351 285.413 353.547 285.448 353.711 285.551L366.111 293.821C366.201 293.883 366.276 293.964 366.331 294.059C366.386 294.155 366.419 294.261 366.429 294.372L372.983 362.87C373.531 364.432 381.095 386.119 383.549 394.776C384.993 399.685 387.202 408.55 388.862 415.14C388.91 415.329 388.885 415.531 388.79 415.701C388.695 415.87 388.54 415.995 388.356 416.047L388.14 416.062Z" fill="white"/>
<path d="M390.854 426.921C390.694 426.92 390.538 426.867 390.411 426.767C390.283 426.668 390.19 426.529 390.146 426.37C390.146 426.37 389.612 424.169 388.79 420.867C388.742 420.669 388.772 420.461 388.873 420.286C388.975 420.112 389.139 419.986 389.331 419.937C389.522 419.888 389.725 419.919 389.894 420.023C390.063 420.128 390.185 420.297 390.233 420.495C391.056 423.797 391.59 425.998 391.59 425.998C391.614 426.093 391.619 426.192 391.606 426.289C391.593 426.386 391.561 426.479 391.513 426.563C391.465 426.648 391.401 426.721 391.325 426.78C391.249 426.839 391.162 426.881 391.07 426.906L390.854 426.921Z" fill="white"/>
<path d="M369.331 296.692H369.1C369.009 296.66 368.926 296.61 368.854 296.545C368.783 296.48 368.725 296.401 368.683 296.312C368.641 296.224 368.617 296.128 368.612 296.029C368.607 295.931 368.62 295.833 368.652 295.74C370.096 291.471 373.113 285.447 377.819 277.89C377.862 277.796 377.925 277.712 378.003 277.644C378.081 277.576 378.172 277.526 378.27 277.497C378.367 277.468 378.47 277.46 378.571 277.475C378.672 277.49 378.769 277.526 378.855 277.582C378.941 277.638 379.015 277.713 379.071 277.8C379.127 277.888 379.165 277.986 379.182 278.09C379.198 278.193 379.194 278.299 379.168 278.401C379.142 278.502 379.095 278.597 379.031 278.679C375.411 284.181 372.391 290.077 370.023 296.261C369.963 296.396 369.865 296.509 369.741 296.586C369.618 296.663 369.475 296.7 369.331 296.692Z" fill="white"/>
<path d="M381.471 274.172C381.326 274.173 381.184 274.126 381.067 274.038C380.908 273.929 380.798 273.76 380.76 273.567C380.723 273.375 380.76 273.175 380.864 273.011C382.929 269.858 384.416 267.731 384.43 267.701C384.543 267.541 384.713 267.434 384.902 267.404C385.092 267.373 385.285 267.421 385.44 267.537C385.596 267.654 385.699 267.829 385.729 268.024C385.759 268.219 385.712 268.419 385.599 268.579C385.599 268.579 384.156 270.706 382.063 273.844C381.997 273.944 381.909 274.026 381.806 274.083C381.703 274.14 381.588 274.171 381.471 274.172V274.172Z" fill="white"/>
<path d="M413.835 462.263C413.099 460.776 412.738 455.867 409.822 451.747C409.389 451.173 408.838 450.705 408.209 450.376C407.581 450.047 406.889 449.865 406.184 449.843C408.667 456.313 406.357 461.49 407.628 466.398C409.071 472.036 410.183 476.915 408.003 481.05C405.823 485.185 400.338 487.446 400.338 487.446H400.237C400.915 491.075 401.68 495.642 402.157 497.576C402.893 500.551 406.906 496.445 408.364 494.601C409.822 492.756 415.293 484.828 414.138 479.562C412.983 474.297 409.807 464.911 409.807 464.911L416.13 473.508C416.206 473.608 416.312 473.678 416.432 473.706C416.552 473.735 416.677 473.719 416.787 473.664C416.897 473.608 416.985 473.514 417.037 473.399C417.088 473.284 417.099 473.155 417.068 473.032C416 469.373 414.34 463.304 413.835 462.263Z" fill="#263238"/>
<path d="M403.239 499.405C403.11 499.42 402.979 499.42 402.85 499.405C402.48 499.324 402.143 499.128 401.885 498.843C401.627 498.559 401.46 498.199 401.406 497.814C401.088 496.505 400.641 494.036 400.165 491.432C399.934 490.153 399.703 488.844 399.472 487.654L399.327 486.911L400.049 486.777C400.049 486.777 405.275 484.59 407.267 480.737C409.259 476.885 408.349 472.497 406.834 466.636C406.378 464.443 406.261 462.189 406.487 459.957C406.86 456.653 406.49 453.304 405.405 450.17L404.972 449.039L406.141 449.144C406.949 449.171 407.74 449.383 408.459 449.764C409.178 450.144 409.806 450.684 410.298 451.345C411.996 453.948 413.183 456.869 413.792 459.943C413.935 460.637 414.133 461.319 414.383 461.98V461.98C414.773 462.813 415.827 466.443 417.675 472.854C417.753 473.144 417.73 473.452 417.611 473.727C417.492 474.001 417.284 474.224 417.023 474.358C416.762 474.492 416.464 474.528 416.179 474.459C415.895 474.391 415.643 474.223 415.466 473.984L411.872 469.091C412.897 472.259 414.181 476.528 414.759 479.503C416.044 485.706 409.071 494.779 408.783 495.151C408.494 495.523 405.477 499.405 403.239 499.405ZM401.06 487.996C401.247 489.023 401.449 490.109 401.637 491.18C402.113 493.753 402.546 496.207 402.864 497.472C402.936 497.769 403.037 497.933 403.153 497.962C403.918 498.126 406.126 496.326 407.801 494.184C410.168 491.12 414.412 484.188 413.488 479.771C412.42 474.609 409.158 465.297 409.158 465.208L407.974 461.802C407.886 463.3 408.012 464.804 408.349 466.264C409.894 472.214 410.905 477.197 408.638 481.466C406.689 485.021 402.46 487.282 401.06 487.996ZM407.974 461.222L416.087 472.244C414.571 466.815 413.517 463.319 413.2 462.65C412.895 461.897 412.663 461.115 412.507 460.314C411.937 457.43 410.829 454.687 409.244 452.237C408.787 451.55 408.114 451.046 407.339 450.809C408.136 453.795 408.391 456.906 408.09 459.987C408.003 460.374 407.989 460.776 407.974 461.222Z" fill="#263238"/>
<path d="M385.469 482.998C384.935 484.783 384.242 486.985 383.564 488.948C382.12 493.083 377.357 493.411 374.08 489.707C372.019 487.026 370.863 483.725 370.789 480.306C369.691 485.572 368.233 490.823 370.789 495.344C373.344 499.866 379.551 500.223 381.37 497.591C384.492 493.443 385.958 488.223 385.469 482.998V482.998Z" fill="#263238"/>
<path d="M377.515 499.986H377.14C375.729 499.916 374.357 499.492 373.141 498.75C371.926 498.009 370.905 496.972 370.168 495.731C367.699 491.358 368.724 486.36 369.792 481.526L371.496 473.375V480.321C371.569 483.563 372.658 486.694 374.599 489.246C375.213 490.068 376.025 490.711 376.954 491.11C377.884 491.509 378.898 491.651 379.897 491.522C380.587 491.37 381.225 491.032 381.748 490.544C382.27 490.055 382.657 489.433 382.871 488.74C383.448 487.104 384.083 485.111 384.776 482.79L385.801 479.369L386.177 482.939C386.69 488.344 385.177 493.746 381.947 498.037C381.407 498.696 380.725 499.215 379.956 499.554C379.186 499.892 378.35 500.04 377.515 499.986V499.986ZM370.659 484.471C369.937 488.249 369.634 491.819 371.409 494.958C372.017 495.989 372.862 496.849 373.869 497.464C374.876 498.079 376.014 498.429 377.183 498.483C377.839 498.574 378.507 498.502 379.13 498.271C379.753 498.041 380.313 497.66 380.763 497.159C382.747 494.456 384.078 491.305 384.646 487.967L384.228 489.201C383.929 490.136 383.397 490.972 382.685 491.628C381.973 492.283 381.106 492.734 380.171 492.935C378.927 493.115 377.658 492.957 376.491 492.477C375.324 491.997 374.299 491.212 373.517 490.198C372.149 488.541 371.17 486.581 370.659 484.471V484.471Z" fill="#263238"/>
<path d="M330.701 150.146C330.701 150.146 325.158 152.139 325.389 152.883C325.62 153.627 316.54 200.482 316.54 200.482C316.54 200.482 310.087 217.737 310.766 223.895C311.444 230.053 316.54 237.446 322.242 237.446C324.092 237.486 325.916 237.003 327.517 236.048C329.118 235.093 330.434 233.704 331.322 232.031C332.52 230.306 336.591 222.169 336.591 222.169C336.591 222.169 335.147 237.699 334.671 239.171C334.195 240.644 331.784 244.586 332.997 245.82C334.838 247.43 336.945 248.685 339.218 249.524C351.245 252.079 363.525 253.153 375.798 252.722C392.066 251.74 401.868 247.308 401.868 247.308C402.406 245.461 403.047 243.649 403.788 241.879C404.264 241.135 405.231 239.915 405.231 239.915C405.231 239.915 420.533 238.19 421.486 237.193C422.438 236.196 425.08 232.031 424.835 225.368C424.589 218.704 426.986 161.064 425.802 159.829C423.649 158.254 421.375 156.861 419.003 155.664L391.301 139.704L349.987 145.297L330.701 150.146Z" fill="#03E1FF"/>
<path d="M370.096 253.585C359.669 253.484 349.275 252.348 339.059 250.194C336.673 249.32 334.461 248.005 332.535 246.311C331.279 245.017 332.535 242.399 333.43 240.361C333.657 239.877 333.86 239.38 334.036 238.874C334.296 238.041 334.989 231.57 335.479 225.844C334.209 228.313 332.592 231.377 331.885 232.403L331.668 232.716C330.707 234.408 329.323 235.803 327.66 236.756C325.996 237.708 324.115 238.183 322.213 238.13C316.179 238.13 310.795 230.693 310.015 223.925C309.279 217.648 315.53 200.869 315.789 200.125C319.24 182.275 324.451 155.04 324.581 152.957C324.422 152.377 324.581 151.47 330.355 149.402H330.427L349.742 144.508L391.128 138.916C391.283 138.89 391.441 138.922 391.575 139.005L419.277 154.951C421.714 156.172 424.042 157.61 426.235 159.249C426.971 160.008 427.043 166.047 425.99 202.312C425.672 213.319 425.398 222.839 425.484 225.278C425.744 232.18 423.001 236.553 421.933 237.669C420.865 238.785 411.381 239.885 405.535 240.555C405.246 240.941 404.654 241.715 404.322 242.236C403.615 243.942 403.008 245.691 402.503 247.472C402.469 247.57 402.415 247.661 402.346 247.737C402.276 247.814 402.192 247.876 402.099 247.918C401.695 248.111 391.994 252.38 375.783 253.407C373.979 253.54 372.044 253.585 370.096 253.585ZM336.605 221.381H336.808C336.969 221.432 337.108 221.537 337.202 221.681C337.297 221.824 337.341 221.997 337.327 222.17C337.168 223.761 335.884 237.818 335.378 239.335C335.234 239.737 334.989 240.287 334.714 240.912C334.195 242.027 332.982 244.675 333.531 245.225C335.283 246.745 337.281 247.933 339.435 248.736C351.386 251.272 363.588 252.336 375.783 251.904C384.501 251.516 393.108 249.75 401.305 246.668C401.814 244.864 402.446 243.1 403.196 241.388C403.687 240.644 404.64 239.424 404.64 239.365C404.699 239.288 404.773 239.224 404.858 239.178C404.942 239.132 405.035 239.104 405.13 239.097C412.261 238.294 420.143 237.119 421.009 236.568C421.861 235.691 424.329 231.66 424.099 225.323C424.012 222.824 424.286 213.289 424.604 202.252C425.066 186.381 425.759 162.507 425.181 160.186C423.104 158.708 420.923 157.391 418.656 156.245L391.142 140.403L350.074 145.951L330.86 150.83C329.179 151.38 327.563 152.118 326.039 153.032C325.894 154.519 324.725 161.808 317.204 200.557C317.103 200.854 310.795 217.826 311.43 223.731C312.065 229.637 316.988 236.628 322.199 236.628C323.868 236.678 325.519 236.26 326.975 235.419C328.432 234.578 329.64 233.346 330.47 231.853L330.701 231.511C331.842 229.86 335.869 221.827 335.898 221.753C335.968 221.627 336.072 221.524 336.198 221.458C336.323 221.392 336.465 221.365 336.605 221.381ZM326.053 152.66C326.071 152.773 326.071 152.889 326.053 153.002C326.099 152.894 326.109 152.774 326.082 152.66H326.053Z" fill="#263238"/>
<path d="M336.605 178.051C335.393 172.205 330.47 162.864 330.427 162.76L331.697 162.061C331.899 162.447 336.764 171.685 338.02 177.739L336.605 178.051Z" fill="#263238"/>
<path d="M329.388 209.303C329.274 209.302 329.161 209.274 329.059 209.223C328.957 209.172 328.867 209.097 328.796 209.005C326.515 205.718 320.322 204.87 320.25 204.855C320.155 204.843 320.064 204.811 319.981 204.762C319.898 204.713 319.825 204.647 319.767 204.569C319.709 204.491 319.666 204.402 319.641 204.307C319.616 204.212 319.61 204.112 319.622 204.015C319.634 203.917 319.665 203.823 319.713 203.738C319.761 203.652 319.824 203.577 319.9 203.517C319.976 203.457 320.062 203.413 320.154 203.387C320.247 203.362 320.343 203.355 320.438 203.368C320.712 203.368 327.323 204.305 329.98 208.113C330.035 208.193 330.074 208.283 330.096 208.379C330.117 208.475 330.12 208.574 330.103 208.671C330.087 208.767 330.053 208.86 330.002 208.943C329.951 209.026 329.884 209.098 329.806 209.154C329.684 209.246 329.539 209.298 329.388 209.303V209.303Z" fill="#263238"/>
<path d="M331.264 207.726C331.125 207.728 330.988 207.688 330.87 207.612C330.753 207.535 330.659 207.425 330.6 207.295C329.662 206.022 328.438 205.001 327.035 204.32C326.864 204.229 326.736 204.072 326.678 203.884C326.62 203.696 326.636 203.491 326.724 203.316C326.812 203.14 326.965 203.008 327.147 202.948C327.33 202.888 327.528 202.905 327.699 202.996C328.06 203.189 331.149 204.885 331.928 206.655C332.003 206.835 332.007 207.038 331.939 207.221C331.872 207.404 331.739 207.553 331.567 207.637C331.474 207.688 331.37 207.719 331.264 207.726V207.726Z" fill="#263238"/>
<path d="M336.605 222.869C336.524 222.883 336.441 222.883 336.36 222.869C336.27 222.837 336.187 222.787 336.116 222.722C336.045 222.656 335.987 222.577 335.947 222.488C335.906 222.399 335.884 222.302 335.88 222.204C335.877 222.106 335.893 222.008 335.927 221.917L337.255 218.019L333.372 209.794L330.629 210.79C330.523 210.834 330.409 210.85 330.295 210.837C330.182 210.824 330.073 210.782 329.98 210.716C329.98 210.716 324.436 206.953 320.712 207.622C316.988 208.291 314.548 213.334 314.534 213.379C314.449 213.556 314.3 213.692 314.119 213.756C313.937 213.82 313.739 213.807 313.566 213.721C313.394 213.634 313.262 213.48 313.2 213.293C313.138 213.106 313.15 212.902 313.234 212.724C313.35 212.486 316.121 206.953 320.452 206.164C324.249 205.465 329.186 208.44 330.47 209.273L333.487 208.157C333.657 208.099 333.841 208.106 334.005 208.177C334.17 208.248 334.304 208.379 334.382 208.544L338.713 217.648C338.752 217.739 338.773 217.838 338.773 217.938C338.773 218.038 338.752 218.136 338.713 218.228L337.269 222.422C337.212 222.554 337.118 222.666 337.001 222.745C336.883 222.825 336.746 222.867 336.605 222.869V222.869Z" fill="#263238"/>
<path d="M410.139 177.292C410.049 177.313 409.955 177.313 409.865 177.292C409.689 177.214 409.549 177.067 409.476 176.883C409.403 176.7 409.403 176.494 409.475 176.311C410.616 173.574 414.21 165.184 414.21 165.184L415.538 165.794C415.538 165.794 411.944 174.169 410.803 176.906C410.74 177.029 410.644 177.13 410.526 177.199C410.409 177.268 410.274 177.3 410.139 177.292V177.292Z" fill="#263238"/>
<path d="M405.26 240.614C405.077 240.613 404.901 240.538 404.77 240.406L390.854 226.87C390.786 226.801 390.732 226.719 390.696 226.628C390.659 226.537 390.64 226.44 390.64 226.342C390.64 226.244 390.659 226.146 390.696 226.056C390.732 225.965 390.786 225.883 390.854 225.814C390.92 225.745 390.998 225.69 391.085 225.652C391.172 225.614 391.265 225.595 391.359 225.595C391.453 225.595 391.546 225.614 391.633 225.652C391.72 225.69 391.798 225.745 391.864 225.814L405.78 239.35C405.888 239.451 405.964 239.584 405.997 239.73C406.031 239.877 406.02 240.031 405.967 240.171C405.914 240.311 405.82 240.432 405.699 240.516C405.578 240.6 405.435 240.645 405.289 240.644L405.26 240.614Z" fill="#263238"/>
<path d="M399.804 238.606C399.695 238.633 399.581 238.633 399.472 238.606L385.541 231.169C385.371 231.078 385.243 230.921 385.185 230.733C385.126 230.545 385.143 230.34 385.231 230.165C385.319 229.989 385.471 229.857 385.654 229.797C385.837 229.737 386.035 229.754 386.205 229.845L400.136 237.282C400.276 237.36 400.388 237.484 400.453 237.635C400.517 237.785 400.532 237.954 400.494 238.114C400.456 238.273 400.368 238.416 400.243 238.518C400.118 238.621 399.963 238.678 399.804 238.68V238.606Z" fill="#263238"/>
<path d="M346.032 250.922C345.854 250.923 345.682 250.854 345.551 250.73C345.42 250.606 345.339 250.436 345.324 250.253C345.304 250.058 345.36 249.862 345.478 249.709C345.597 249.556 345.77 249.457 345.96 249.435L382.799 245.344C382.893 245.332 382.988 245.339 383.08 245.366C383.171 245.392 383.256 245.437 383.33 245.498C383.404 245.559 383.466 245.635 383.511 245.721C383.556 245.807 383.584 245.902 383.593 245.999C383.613 246.194 383.558 246.389 383.439 246.543C383.32 246.696 383.147 246.795 382.958 246.817L346.118 250.922H346.032Z" fill="#263238"/>
<path d="M372.174 206.283H372.102C372.007 206.274 371.915 206.245 371.831 206.199C371.747 206.153 371.672 206.09 371.612 206.014C371.551 205.938 371.506 205.85 371.479 205.756C371.451 205.662 371.443 205.563 371.453 205.465C371.698 203.189 375.899 160.752 375.942 160.32C375.951 160.223 375.979 160.128 376.024 160.041C376.069 159.955 376.131 159.878 376.204 159.816C376.278 159.754 376.363 159.707 376.454 159.679C376.545 159.651 376.641 159.641 376.736 159.651C376.831 159.661 376.923 159.69 377.007 159.736C377.091 159.782 377.165 159.845 377.225 159.921C377.285 159.997 377.331 160.085 377.358 160.179C377.386 160.273 377.395 160.371 377.385 160.469C377.385 160.9 373.156 203.338 372.91 205.629C372.886 205.811 372.798 205.979 372.662 206.099C372.527 206.219 372.353 206.285 372.174 206.283V206.283Z" fill="#263238"/>
<path d="M368.695 237.074H368.623C368.528 237.065 368.436 237.036 368.352 236.99C368.268 236.944 368.193 236.881 368.133 236.805C368.072 236.728 368.027 236.641 368 236.547C367.973 236.452 367.964 236.354 367.974 236.256L369.215 222.155C369.237 221.961 369.33 221.784 369.475 221.659C369.62 221.535 369.806 221.472 369.995 221.485C370.089 221.493 370.182 221.52 370.267 221.564C370.352 221.609 370.427 221.67 370.489 221.745C370.55 221.819 370.597 221.906 370.626 221.999C370.656 222.092 370.666 222.191 370.659 222.288L369.403 236.39C369.388 236.574 369.308 236.746 369.177 236.873C369.046 236.999 368.875 237.071 368.695 237.074V237.074Z" fill="#263238"/>
<path d="M393.914 132.549L390.247 142.114L378.165 156.334L367.382 141.667L368.262 123.133L381.832 135.881L393.914 132.549Z" fill="white"/>
<path d="M378.122 157.524L366.646 141.905V141.638L367.613 121.527L382.048 135.063L395.127 131.448L390.796 142.604L378.122 157.524ZM368.118 141.414L378.223 155.144L389.641 141.757L392.73 133.694L381.658 136.759L368.926 124.859L368.118 141.414Z" fill="#263238"/>
<path d="M382.929 73.8532C382.929 73.8532 361.665 81.7814 358.735 88.014C356.257 93.9076 354.356 100.042 353.062 106.325C353.062 107.083 342.957 111.248 340.965 114.446C338.973 117.644 341.138 127.105 340.965 129.753C340.792 132.4 331.437 135.42 330.514 141.266C329.888 144.214 329.953 147.273 330.701 150.19L347.013 147.543C347.013 147.543 357.638 151.886 363.325 149.625C369.013 147.364 369.547 136.03 369.186 132.252C368.825 128.473 368.262 123.178 368.262 123.178L375.783 101.252L392.817 95.9571L403.629 106.369L393.697 133.263C393.697 133.263 390.565 139.793 391.114 141.489C391.662 143.184 396.671 144.895 396.671 144.895L419.032 155.664C419.604 153.904 419.791 152.034 419.58 150.19C419.219 147.216 414.441 140.745 414.441 138.856C414.441 136.967 420.677 129.604 417.747 122.999C414.817 116.395 411.698 112.795 410.053 109.404C408.407 106.012 411.496 99.5716 408.22 91.2715C404.943 82.9714 394.102 75.7869 391.171 74.0912C388.241 72.3955 382.929 73.8532 382.929 73.8532Z" fill="#263238"/>
<path d="M419.421 156.631L396.325 145.535C395.502 145.252 391.013 143.631 390.392 141.682C389.771 139.734 392.24 134.483 393.019 132.891L402.749 106.533L392.644 96.7752L376.346 101.833L369.013 123.223C369.114 124.16 369.59 128.741 369.908 132.147C370.226 135.316 370.052 147.706 363.6 150.28C358.071 152.481 348.457 148.867 346.941 148.272L330.239 150.979L330.037 150.414C329.25 147.392 329.175 144.219 329.821 141.162C330.413 137.398 334.021 134.825 336.937 132.757C338.468 131.671 340.2 130.437 340.258 129.782C340.239 128.467 340.133 127.155 339.94 125.855C339.449 121.72 338.843 116.574 340.373 114.134C341.73 111.962 346.147 109.553 349.467 107.797C350.457 107.294 351.421 106.738 352.354 106.131C353.684 99.8308 355.618 93.6821 358.129 87.776C361.16 81.3501 381.846 73.5706 382.669 73.2433C382.885 73.2433 388.299 71.6666 391.46 73.4962C391.59 73.4962 405 81.4245 408.783 91.0484C410.28 95.135 410.776 99.5392 410.226 103.87C409.927 105.623 410.041 107.424 410.558 109.121C411.337 110.512 412.19 111.858 413.113 113.152C415.116 116.156 416.873 119.325 418.368 122.628C420.634 127.715 417.848 133.144 416.188 136.387C415.743 137.143 415.389 137.952 415.134 138.796C415.644 140.378 416.363 141.879 417.271 143.259C418.621 145.325 419.63 147.607 420.259 150.012C420.495 151.977 420.292 153.971 419.667 155.843L419.421 156.631ZM393.019 95.1092L404.481 106.131L394.376 133.486C392.932 136.55 391.489 140.343 391.792 141.206C392.095 142.069 394.679 143.378 396.902 144.181L418.555 154.593C418.903 153.175 418.996 151.703 418.83 150.25C418.173 148.05 417.199 145.965 415.942 144.062C414.499 141.489 413.618 139.867 413.618 138.826C413.82 137.72 414.237 136.667 414.845 135.732C416.477 132.534 418.945 127.7 416.982 123.267C415.519 120.038 413.8 116.939 411.843 114C410.918 112.618 410.07 111.182 409.302 109.701C408.669 107.789 408.511 105.743 408.84 103.751C409.329 99.6399 408.833 95.4676 407.397 91.5988C403.759 82.4508 390.796 74.8498 390.666 74.7754C388.125 73.288 383.376 74.5523 382.986 74.6564C382.106 74.9837 361.954 82.6442 359.226 88.4305C356.785 94.2292 354.909 100.263 353.625 106.444C353.625 107.128 353.047 107.47 349.958 109.121C346.869 110.772 342.567 113.093 341.412 114.952C340.258 116.812 340.792 122.196 341.196 125.677C341.408 127.07 341.519 128.477 341.528 129.886C341.427 131.374 339.723 132.534 337.573 134.066C334.902 135.97 331.567 138.335 331.062 141.504C330.582 144.118 330.582 146.802 331.062 149.417L346.941 146.844L347.129 146.918C347.23 146.918 357.566 151.128 362.921 149.001C368.277 146.873 368.695 136.104 368.32 132.4C367.945 128.696 367.411 123.342 367.411 123.342V123.163V123.014L375.047 100.702L393.019 95.1092Z" fill="#263238"/>
<path d="M390.623 89.1444C390.623 89.1444 374.137 96.7008 372.853 100.286C371.568 103.87 368.089 120.5 368.262 123.133C368.436 125.766 379.45 139.377 381.644 139.763C383.838 140.15 395.141 133.397 397.162 131.88C399.183 130.362 405.823 107.649 405.65 104.064C405.477 100.479 392.456 89.3527 390.623 89.1444Z" fill="white"/>
<path d="M381.788 140.507H381.528C378.988 140.076 367.757 126.168 367.54 123.208C367.324 120.248 370.933 103.499 372.174 100.048C373.517 96.2695 388.616 89.2634 390.334 88.49L390.507 88.4007H390.695C392.745 88.609 406.155 99.8245 406.372 104.019C406.559 107.723 399.876 130.794 397.581 132.475C396.123 133.59 384.892 140.507 381.788 140.507ZM390.695 89.9328C384.401 92.9078 374.368 98.1734 373.531 100.553C372.218 104.198 368.811 120.575 368.984 123.089C369.143 125.364 379.767 138.618 381.759 139.02C383.434 139.317 394.145 133.218 396.729 131.285C398.375 130.005 405.116 107.649 404.928 104.108C404.769 101 392.687 90.7212 390.695 89.9328Z" fill="#263238"/>
<path d="M406.17 107.411C399.573 105.373 392.615 94.0234 390.579 90.5427C388.602 93.3689 382.366 101.342 372.867 103.93L372.492 102.443C383.333 99.4676 389.944 88.7875 390.016 88.6834L390.666 87.6124L391.258 88.7131C391.33 88.8619 399.472 103.722 406.588 105.923L406.17 107.411Z" fill="#263238"/>
<path d="M368.695 105.12L368.421 103.633C373.791 102.517 390.002 88.6834 390.161 88.5495L391.085 89.6949C390.406 90.3047 374.426 103.93 368.695 105.12Z" fill="#263238"/>
<path d="M387.028 125.186C386.577 125.203 386.126 125.158 385.686 125.052C385.494 124.997 385.332 124.866 385.235 124.687C385.137 124.509 385.113 124.297 385.166 124.1C385.22 123.903 385.347 123.736 385.521 123.635C385.694 123.535 385.899 123.509 386.09 123.565C386.878 123.697 387.683 123.659 388.456 123.454C389.228 123.249 389.952 122.882 390.58 122.375C390.732 122.268 390.917 122.226 391.099 122.256C391.28 122.286 391.444 122.386 391.556 122.536C391.668 122.686 391.721 122.874 391.703 123.062C391.685 123.251 391.598 123.425 391.46 123.55C390.177 124.543 388.632 125.114 387.028 125.186V125.186Z" fill="#263238"/>
<path d="M386.018 129.366C384.697 129.349 383.394 129.045 382.195 128.473C380.996 127.901 379.928 127.075 379.06 126.049C378.957 125.892 378.916 125.701 378.945 125.514C378.974 125.327 379.071 125.158 379.216 125.043C379.362 124.927 379.544 124.873 379.727 124.891C379.91 124.91 380.079 124.999 380.2 125.141C381.361 126.519 382.94 127.451 384.681 127.786C386.421 128.121 388.221 127.839 389.786 126.986C389.873 126.947 389.967 126.926 390.062 126.924C390.157 126.922 390.251 126.94 390.34 126.976C390.428 127.012 390.509 127.065 390.577 127.133C390.646 127.201 390.7 127.283 390.738 127.373C390.776 127.462 390.797 127.559 390.798 127.657C390.8 127.755 390.783 127.852 390.748 127.944C390.713 128.035 390.661 128.118 390.595 128.188C390.529 128.259 390.45 128.315 390.363 128.354C389 129.004 387.519 129.349 386.018 129.366V129.366Z" fill="#263238"/>
<path d="M385.859 108.214C385.714 108.213 385.573 108.166 385.455 108.08C385.455 108.08 381.124 105.105 377.183 107.009C377.009 107.092 376.81 107.1 376.63 107.032C376.45 106.963 376.304 106.824 376.224 106.645C376.143 106.465 376.135 106.26 376.202 106.075C376.268 105.889 376.403 105.738 376.577 105.655C381.298 103.439 386.061 106.712 386.263 106.845C386.343 106.901 386.41 106.972 386.463 107.054C386.515 107.136 386.551 107.229 386.568 107.326C386.586 107.422 386.585 107.522 386.564 107.618C386.544 107.715 386.506 107.806 386.451 107.887C386.386 107.987 386.298 108.07 386.195 108.127C386.092 108.184 385.976 108.214 385.859 108.214V108.214Z" fill="#263238"/>
<path d="M401.81 109.716C401.618 109.715 401.433 109.641 401.291 109.508C399.27 107.426 394.607 109.27 394.549 109.285C394.375 109.34 394.187 109.324 394.023 109.242C393.859 109.16 393.732 109.017 393.666 108.842C393.6 108.667 393.601 108.473 393.669 108.298C393.736 108.124 393.865 107.982 394.03 107.902C394.246 107.812 399.63 105.685 402.315 108.452C402.449 108.593 402.523 108.783 402.523 108.98C402.523 109.177 402.449 109.367 402.315 109.508C402.177 109.638 401.997 109.712 401.81 109.716V109.716Z" fill="#263238"/>
<path d="M382.553 113.152C382.438 114.298 381.644 115.146 380.792 115.056C380.33 114.933 379.933 114.63 379.682 114.212C379.432 113.793 379.349 113.291 379.45 112.81C379.58 111.68 380.359 110.832 381.225 110.921C381.683 111.044 382.078 111.345 382.325 111.761C382.573 112.177 382.654 112.676 382.553 113.152V113.152Z" fill="#263238"/>
<path d="M397.032 115.384C397.071 115.636 397.053 115.895 396.979 116.139C396.906 116.384 396.779 116.607 396.607 116.793C396.436 116.978 396.226 117.12 395.993 117.209C395.76 117.297 395.51 117.329 395.263 117.302C395.017 117.274 394.779 117.189 394.569 117.052C394.36 116.915 394.183 116.73 394.054 116.511C393.925 116.293 393.847 116.046 393.825 115.791C393.803 115.537 393.839 115.28 393.929 115.041C394.044 113.896 394.838 113.048 395.69 113.137C396.152 113.261 396.549 113.563 396.8 113.982C397.05 114.401 397.133 114.903 397.032 115.384V115.384Z" fill="#263238"/>
<path d="M361.333 149.893L367.815 161.674L376.014 153.225L367.382 141.667L361.333 149.893Z" fill="#03E1FF"/>
<path d="M367.815 162.418H367.714C367.604 162.399 367.499 162.357 367.407 162.292C367.314 162.228 367.237 162.144 367.18 162.046L360.712 150.339C360.635 150.218 360.594 150.076 360.594 149.93C360.594 149.785 360.635 149.643 360.712 149.521L366.761 141.295C366.831 141.206 366.919 141.134 367.018 141.082C367.118 141.031 367.227 141.002 367.338 140.998C367.449 140.997 367.557 141.023 367.656 141.075C367.754 141.127 367.838 141.202 367.901 141.295L376.563 152.853C376.681 152.987 376.747 153.162 376.747 153.344C376.747 153.526 376.681 153.701 376.563 153.835L368.363 162.239C368.289 162.306 368.201 162.356 368.107 162.387C368.013 162.418 367.913 162.428 367.815 162.418ZM362.199 149.953L367.974 160.454L375.047 153.165L367.382 142.902L362.199 149.953Z" fill="#263238"/>
<path d="M381.182 153.671L387.014 162.343L396.671 144.85L391.33 139.659L381.182 153.671Z" fill="#03E1FF"/>
<path d="M387.014 163.087C386.898 163.086 386.785 163.058 386.682 163.004C386.579 162.949 386.49 162.871 386.422 162.775L380.648 154.103C380.563 153.973 380.518 153.82 380.518 153.664C380.518 153.508 380.563 153.355 380.648 153.225L390.753 139.228C390.811 139.14 390.888 139.067 390.978 139.016C391.069 138.964 391.169 138.935 391.272 138.93C391.372 138.917 391.473 138.927 391.569 138.96C391.664 138.994 391.75 139.05 391.821 139.124L397.234 144.389C397.353 144.502 397.433 144.653 397.459 144.817C397.485 144.982 397.457 145.151 397.379 145.297L387.707 162.789C387.647 162.899 387.562 162.99 387.458 163.055C387.354 163.12 387.236 163.157 387.115 163.161L387.014 163.087ZM382.077 153.686L386.956 160.945L395.762 144.999L391.431 140.775L382.077 153.686Z" fill="#263238"/>
<path d="M353.885 212.441H341.196L339.608 182.186H355.472L353.885 212.441Z" fill="white"/>
<path d="M354.563 213.185H340.517L338.843 181.442H356.165L354.563 213.185ZM341.874 211.698H353.192L354.707 182.93H340.373L341.874 211.698Z" fill="#263238"/>
<path d="M356.858 179.613H337.933V184.194H356.858V179.613Z" fill="#263238"/>
<path d="M357.58 184.938H337.212V178.869H357.58V184.938ZM338.655 183.45H356.136V180.356H338.655V183.45Z" fill="#263238"/>
<path d="M354.505 177.456H340.59V179.613H354.505V177.456Z" fill="#263238"/>
<path d="M355.213 180.357H339.868V176.712H355.213V180.357ZM341.311 178.869H353.769V178.2H341.311V178.869Z" fill="#263238"/>
<path d="M339.002 215.149C339.002 215.223 339.002 215.297 339.002 215.327C338.623 216.452 337.933 217.438 337.018 218.165C336.102 218.892 335 219.327 333.848 219.418C333.222 219.484 332.589 219.415 331.99 219.215C331.391 219.015 330.839 218.689 330.369 218.257C329.506 217.29 328.996 216.044 328.926 214.732C328.688 213.52 328.752 212.265 329.11 211.085C329.468 209.904 330.11 208.836 330.976 207.979C331.582 207.235 333.863 205.316 334.036 204.364L335.321 193.952C335.321 193.952 347.908 190.977 348.991 191.141C349.215 191.174 349.428 191.261 349.613 191.395C349.799 191.529 349.951 191.705 350.058 191.911C350.164 192.117 350.223 192.345 350.228 192.578C350.233 192.811 350.185 193.042 350.088 193.253C349.814 194.101 347.908 194.517 347.49 194.651C347.071 194.785 340.922 196.347 340.922 196.347L338.742 199.024C339.803 198.479 340.897 198.007 342.019 197.611C342.437 197.611 349.236 196.629 350.088 196.496C350.336 196.485 350.582 196.54 350.803 196.655C351.024 196.77 351.212 196.942 351.35 197.155C351.488 197.367 351.57 197.612 351.589 197.866C351.608 198.121 351.564 198.376 351.459 198.608C350.911 199.738 350.507 200.006 350.088 200.006C349.669 200.006 342.87 201.285 342.87 201.285L339.045 204.662C339.045 204.662 344.242 202.966 344.819 202.966C345.397 202.966 350.146 202.832 350.29 203.68C350.398 204.11 350.344 204.565 350.141 204.957C349.938 205.348 349.6 205.646 349.193 205.792C348.24 206.075 344.545 206.64 344.545 206.64L340.431 208.886H344.401C344.401 208.886 348.24 210.166 349.049 210.374C349.857 210.582 350.492 210.939 349.323 212.203C348.154 213.468 339.723 212.456 339.723 212.456C339.723 212.456 339.146 214.464 339.002 215.149Z" fill="white"/>
<path d="M333.357 220.251C332.049 220.279 330.781 219.783 329.821 218.867C328.815 217.788 328.216 216.375 328.132 214.881C327.884 213.567 327.957 212.21 328.345 210.932C328.733 209.654 329.424 208.496 330.355 207.562C330.543 207.339 330.889 206.982 331.293 206.596C332.044 205.947 332.701 205.191 333.242 204.35L334.599 193.387L335.09 193.268C338.063 192.569 347.865 190.293 349.02 190.442C349.313 190.476 349.596 190.578 349.846 190.74C350.096 190.902 350.307 191.121 350.463 191.379C350.649 191.701 350.764 192.06 350.801 192.433C350.839 192.805 350.797 193.181 350.68 193.536C350.319 194.621 348.717 195.023 347.793 195.335L347.562 195.41C347.172 195.544 342.582 196.704 341.167 197.061C341.399 196.951 341.648 196.885 341.903 196.868C342.394 196.868 348.991 195.901 349.857 195.752C350.235 195.724 350.614 195.797 350.957 195.966C351.299 196.135 351.592 196.393 351.808 196.714C352.024 197.036 352.154 197.41 352.187 197.799C352.22 198.189 352.153 198.58 351.994 198.935C351.546 199.842 350.969 200.765 349.973 200.765C349.597 200.765 345.642 201.508 343.044 201.984L341.99 202.907C342.858 202.617 343.746 202.393 344.646 202.237H344.862C349.698 202.237 350.637 202.654 350.824 203.576C350.975 204.189 350.893 204.838 350.595 205.391C350.297 205.943 349.806 206.358 349.222 206.551C348.313 206.819 345.267 207.295 344.603 207.399L343.159 208.187H344.473C345.916 208.693 348.457 209.466 349.02 209.571C349.326 209.578 349.623 209.674 349.878 209.848C350.134 210.022 350.336 210.266 350.463 210.552C350.738 211.341 350.175 212.114 349.742 212.635C348.529 214.033 342.192 213.438 340.128 213.2C340.128 213.453 340.027 213.765 339.954 214.078C339.882 214.39 339.767 215.074 339.695 215.342C339.68 215.434 339.656 215.524 339.622 215.61C339.197 216.869 338.424 217.974 337.398 218.787C336.372 219.601 335.139 220.089 333.848 220.191L333.357 220.251ZM335.898 194.607L334.671 204.543C334.57 205.406 333.617 206.387 332.289 207.681C331.996 207.949 331.717 208.232 331.452 208.529C330.649 209.307 330.055 210.286 329.726 211.37C329.397 212.454 329.345 213.607 329.575 214.717C329.628 215.861 330.067 216.951 330.817 217.796C331.21 218.149 331.669 218.415 332.165 218.578C332.662 218.742 333.185 218.8 333.704 218.748C334.718 218.669 335.687 218.287 336.493 217.647C337.298 217.007 337.904 216.139 338.237 215.149L338.973 215.223L338.265 215.044C338.265 214.792 338.424 214.301 338.511 213.825C338.901 211.861 338.958 211.623 339.637 211.698C343.39 212.144 348.009 212.248 348.63 211.698C348.78 211.53 348.911 211.346 349.02 211.147H348.774C347.981 210.999 344.848 209.972 344.126 209.66H337.399L344.271 205.926C345.296 205.777 348.082 205.331 348.832 205.108C349.036 205.032 349.208 204.884 349.319 204.692C349.429 204.499 349.472 204.273 349.439 204.052C347.944 203.73 346.414 203.625 344.891 203.74H344.66C344.271 203.74 341.542 204.602 339.132 205.391L335.754 206.491L342.423 200.542H342.611C345.194 200.051 349.583 199.262 349.987 199.262C350.074 199.262 350.333 199.039 350.709 198.251C350.766 198.138 350.789 198.01 350.776 197.883C350.763 197.756 350.715 197.636 350.637 197.537C350.579 197.442 350.501 197.363 350.408 197.307C350.315 197.25 350.21 197.216 350.103 197.21C349.684 197.284 342.466 198.34 341.918 198.34C341.672 198.34 340.171 199.084 338.944 199.679L335.941 201.166L340.431 195.663H340.647C343 195.068 346.855 194.086 347.172 193.982L347.461 193.893C348.991 193.446 349.265 193.149 349.309 193.045C349.367 192.906 349.397 192.757 349.397 192.606C349.397 192.455 349.367 192.306 349.309 192.167C349.261 192.088 349.195 192.022 349.117 191.975C349.039 191.929 348.951 191.903 348.861 191.899C348.154 191.825 341.701 193.179 335.898 194.532V194.607Z" fill="#263238"/>
<path d="M405.347 209.08L402.633 212.813C402.633 212.813 402.633 235.125 403.485 236.985C404.336 238.844 410.962 243.991 414.528 243.991C418.093 243.991 425.08 235.586 425.412 234.188C425.744 232.79 416.578 205.629 416.751 204.93C416.924 204.231 415.914 203.353 414.716 203.353C413.517 203.353 405.347 209.08 405.347 209.08Z" fill="#03E1FF"/>
<path d="M414.557 244.69C410.63 244.69 403.802 239.409 402.85 237.252C401.897 235.096 401.94 216.502 401.94 212.769C401.934 212.607 401.986 212.448 402.084 212.322L404.798 208.633L404.972 208.47C408.09 206.268 413.503 202.52 414.73 202.52C415.187 202.513 415.639 202.609 416.056 202.802C416.472 202.994 416.843 203.279 417.141 203.636C417.279 203.809 417.381 204.008 417.443 204.223C417.505 204.437 417.525 204.663 417.502 204.885C417.646 205.703 419.205 210.612 420.721 215.372C425.282 229.741 426.35 233.445 426.148 234.278C425.686 236.107 418.483 244.69 414.557 244.69ZM403.384 213.022C403.384 223.657 403.658 235.482 404.163 236.643C404.943 238.398 411.381 243.202 414.557 243.202C417.732 243.202 424.373 235.334 424.748 233.965C424.748 232.894 421.5 222.66 419.349 215.877C416.058 205.554 415.971 205.108 416.072 204.707C415.92 204.49 415.717 204.316 415.483 204.202C415.248 204.088 414.989 204.036 414.73 204.052C411.634 205.652 408.674 207.518 405.881 209.63L403.384 213.022Z" fill="#263238"/>
<path d="M414.773 195.797L415.206 205.227C415.206 205.227 414.701 209.08 412.319 210.656C410.603 211.654 408.674 212.195 406.704 212.233L405.174 209.08L402.806 206.625L414.773 195.797Z" fill="white"/>
<path d="M406.704 212.977H406.271L404.582 209.526L401.695 206.551L415.365 194.175L415.87 205.153C415.87 205.45 415.278 209.496 412.651 211.251C410.84 212.329 408.795 212.922 406.704 212.977V212.977ZM403.817 206.67L405.78 208.752L407.108 211.475C408.793 211.376 410.43 210.866 411.886 209.987C413.965 208.619 414.456 205.123 414.456 205.078L414.08 197.329L403.817 206.67Z" fill="#263238"/>
<path d="M417.53 182.975L400.309 179.271L389.526 208.916L404.091 211.638L417.53 182.975Z" fill="#263238"/>
<path d="M404.452 212.471L388.573 209.496L399.876 178.438L418.642 182.469L404.452 212.471ZM390.507 208.351L403.672 210.82L416.477 183.525L400.771 180.089L390.507 208.351Z" fill="#263238"/>
<path d="M415.163 190.501C415.163 190.501 403.615 191.037 403.485 191.989C403.355 192.941 403.745 194.101 404.134 194.235C404.524 194.368 414.773 195.826 414.773 195.826C414.773 195.826 417.66 195.157 417.458 192.777C417.465 192.469 417.409 192.162 417.295 191.877C417.181 191.592 417.011 191.334 416.795 191.12C416.579 190.907 416.323 190.741 416.042 190.635C415.761 190.528 415.462 190.482 415.163 190.501Z" fill="white"/>
<path d="M414.802 196.555H414.672C410.818 196.02 404.293 195.068 403.903 194.949C402.994 194.636 402.633 192.926 402.777 191.884C402.864 191.245 402.994 190.397 415.12 189.802C415.897 189.767 416.659 190.032 417.256 190.546C417.546 190.83 417.777 191.171 417.936 191.549C418.095 191.928 418.178 192.335 418.18 192.747C418.151 193.67 417.811 194.553 417.218 195.246C416.625 195.938 415.817 196.396 414.932 196.54L414.802 196.555ZM404.452 193.476C405.332 193.64 411.063 194.473 414.73 194.964C415.192 194.83 416.823 194.22 416.751 192.717C416.752 192.512 416.711 192.308 416.631 192.119C416.551 191.931 416.435 191.761 416.288 191.621C416.142 191.481 415.969 191.375 415.78 191.307C415.591 191.24 415.391 191.214 415.192 191.23V190.486V191.23C411.503 191.31 407.825 191.683 404.192 192.346C404.195 192.738 404.284 193.124 404.452 193.476V193.476Z" fill="#263238"/>
<path d="M408.624 195.127C408.624 195.127 398.519 193.937 397.985 194.607C397.451 195.276 396.96 196.183 398.49 196.853C402.283 198.154 406.137 199.256 410.038 200.155C410.741 200.113 411.426 199.915 412.047 199.574C412.668 199.232 413.209 198.755 413.633 198.177C413.823 197.862 413.944 197.51 413.989 197.142C414.034 196.775 414.001 196.402 413.893 196.049L408.624 195.127Z" fill="white"/>
<path d="M410.024 200.913C406.03 200.023 402.087 198.9 398.216 197.552C397.877 197.442 397.568 197.249 397.317 196.99C397.066 196.731 396.879 196.414 396.772 196.064C396.722 195.706 396.754 195.341 396.864 194.998C396.974 194.655 397.16 194.343 397.407 194.086C397.667 193.744 398.158 193.104 408.681 194.339L414.297 195.335L414.456 195.663C414.625 196.115 414.691 196.601 414.648 197.083C414.606 197.565 414.456 198.031 414.21 198.444C413.737 199.153 413.115 199.744 412.391 200.171C411.666 200.599 410.857 200.852 410.024 200.913V200.913ZM398.476 195.216C398.201 195.603 398.216 195.737 398.216 195.767C398.216 195.797 398.375 195.99 398.793 196.183C400.41 196.868 409.302 199.366 410.067 199.426C410.627 199.378 411.171 199.213 411.667 198.942C412.164 198.671 412.601 198.299 412.954 197.849C413.142 197.503 413.245 197.115 413.257 196.719L408.508 195.886C405.176 195.396 401.812 195.168 398.447 195.202L398.476 195.216Z" fill="#263238"/>
<path d="M403.369 198.563C403.369 198.563 395.675 196.987 395.285 197.775C394.896 198.563 394.78 199.887 395.545 200.423C396.31 200.958 406.574 203.844 407.209 204.111C407.844 204.379 409.389 203.591 409.894 202.535C410.196 201.779 410.242 200.941 410.024 200.155L403.369 198.563Z" fill="white"/>
<path d="M407.498 204.915C407.306 204.912 407.116 204.876 406.935 204.811C406.747 204.721 405.304 204.29 403.889 203.874C400.918 203.117 397.996 202.168 395.141 201.032C394.663 200.59 394.35 199.99 394.258 199.334C394.166 198.679 394.299 198.012 394.636 197.448C394.881 196.957 395.271 196.139 403.499 197.834L410.573 199.53L410.688 199.932C410.976 200.913 410.915 201.968 410.515 202.907C410.208 203.469 409.773 203.945 409.247 204.295C408.722 204.645 408.121 204.858 407.498 204.915V204.915ZM395.791 198.31C395.589 198.861 395.574 199.59 395.877 199.798C396.44 200.125 401.522 201.642 404.235 202.446C406.213 203.041 407.122 203.323 407.426 203.427C407.732 203.407 408.03 203.319 408.3 203.168C408.57 203.018 408.805 202.809 408.989 202.556C409.172 202.302 409.301 202.011 409.365 201.702C409.429 201.393 409.427 201.073 409.36 200.765L403.153 199.277C400.736 198.703 398.27 198.379 395.791 198.31V198.31Z" fill="#263238"/>
<path d="M403.615 203.189C403.615 203.189 397.841 201.999 397.595 202.669C397.35 203.338 397.205 204.781 398.36 205.168C399.515 205.554 406.184 208.336 407.339 207.548C408.494 206.759 408.104 204.647 408.104 204.647L403.615 203.189Z" fill="white"/>
<path d="M406.66 208.425C404.025 208.065 401.454 207.319 399.024 206.209L398.129 205.882C397.866 205.794 397.624 205.651 397.418 205.461C397.211 205.272 397.046 205.04 396.931 204.781C396.627 204.013 396.627 203.154 396.931 202.386C397.119 201.865 397.407 201.151 403.759 202.46H403.831L408.739 204.052V204.498C408.739 204.751 409.172 207.116 407.671 208.157C407.362 208.336 407.014 208.428 406.66 208.425V208.425ZM398.187 203.204C398.1 203.51 398.1 203.835 398.187 204.141C398.22 204.22 398.269 204.29 398.332 204.347C398.394 204.403 398.468 204.445 398.548 204.469L399.486 204.811C404.87 206.863 406.502 207.086 406.92 206.923C407.339 206.759 407.426 205.778 407.397 205.212L403.441 203.888C401.713 203.503 399.954 203.274 398.187 203.204V203.204Z" fill="#263238"/>
<path d="M438.058 29.3628H490.415C492.766 29.3628 495.02 30.325 496.682 32.0378C498.344 33.7506 499.278 36.0736 499.278 38.4959V75.0581C499.278 77.4803 498.344 79.8033 496.682 81.5161C495.02 83.2289 492.766 84.1912 490.415 84.1912H459.667L445.607 104.599V84.1912H438.058C436.892 84.1931 435.738 83.9583 434.661 83.5002C433.584 83.0421 432.605 82.3697 431.781 81.5214C430.956 80.6731 430.302 79.6656 429.856 78.5566C429.409 77.4475 429.18 76.2587 429.18 75.0581V38.4959C429.18 37.2953 429.409 36.1064 429.856 34.9974C430.302 33.8883 430.956 32.8808 431.781 32.0326C432.605 31.1843 433.584 30.5118 434.661 30.0537C435.738 29.5956 436.892 29.3608 438.058 29.3628V29.3628Z" fill="#263238"/>
<path d="M445.607 105.343C445.536 105.357 445.462 105.357 445.391 105.343C445.245 105.298 445.117 105.206 445.026 105.08C444.934 104.954 444.885 104.801 444.886 104.644V84.8903H438.058C435.514 84.8903 433.075 83.8502 431.275 81.9983C429.475 80.1465 428.462 77.6343 428.458 75.0134V38.4959C428.462 35.875 429.475 33.3628 431.275 31.511C433.075 29.6592 435.514 28.6191 438.058 28.6191H490.415C492.956 28.623 495.392 29.6649 497.188 31.5163C498.985 33.3677 499.996 35.8776 500 38.4959V75.0581C499.996 77.6764 498.985 80.1863 497.188 82.0377C495.392 83.8891 492.956 84.931 490.415 84.9349H460.1L446.257 105.031C446.182 105.134 446.084 105.217 445.971 105.272C445.857 105.327 445.732 105.351 445.607 105.343V105.343ZM438.058 30.1065C435.897 30.1065 433.825 30.9899 432.296 32.5628C430.766 34.1357 429.905 36.2695 429.902 38.4959V75.0581C429.905 77.2844 430.766 79.4183 432.296 80.9912C433.825 82.564 435.897 83.4474 438.058 83.4474H445.607C445.799 83.4474 445.982 83.5258 446.118 83.6653C446.253 83.8048 446.329 83.9939 446.329 84.1912V102.264L459.09 83.7598C459.155 83.6638 459.241 83.5853 459.342 83.531C459.442 83.4766 459.554 83.4479 459.667 83.4474H490.415C492.573 83.4435 494.642 82.5584 496.168 80.9859C497.694 79.4135 498.553 77.2819 498.556 75.0581V38.4959C498.553 36.2721 497.694 34.1405 496.168 32.5681C494.642 30.9956 492.573 30.1105 490.415 30.1065H438.058Z" fill="#263238"/>
<path d="M460.923 75.1176H460.75C459.971 75.0844 459.209 74.8657 458.525 74.4786C457.842 74.0915 457.254 73.5465 456.809 72.8864L447.296 58.8297C446.891 58.2704 446.599 57.6328 446.438 56.9549C446.276 56.277 446.249 55.5725 446.357 54.8835C446.465 54.1944 446.707 53.5348 447.068 52.9439C447.428 52.353 447.9 51.8428 448.456 51.4437C449.012 51.0447 449.64 50.7648 450.303 50.6209C450.966 50.4769 451.65 50.4717 452.314 50.6057C452.979 50.7397 453.611 51.0101 454.173 51.4007C454.734 51.7914 455.213 52.2944 455.582 52.8798L461.356 61.3138L481.364 36.2498C482.223 35.2129 483.442 34.5645 484.76 34.444C486.078 34.3235 487.389 34.7405 488.412 35.6054C489.435 36.4703 490.087 37.7141 490.23 39.0695C490.372 40.425 489.993 41.7838 489.173 42.8542L464.936 73.2285C464.449 73.8348 463.835 74.3196 463.14 74.6467C462.445 74.9739 461.687 75.1348 460.923 75.1176V75.1176Z" fill="#03E1FF"/>
<path d="M485.16 34.3161C486.331 34.311 487.466 34.7325 488.365 35.5061C488.879 35.938 489.305 36.4702 489.619 37.0722C489.932 37.6742 490.128 38.334 490.193 39.0139C490.259 39.6939 490.194 40.3805 490.001 41.0343C489.809 41.6882 489.493 42.2966 489.072 42.8245L464.835 73.1987C464.36 73.794 463.763 74.2734 463.086 74.6026C462.41 74.9318 461.671 75.1026 460.923 75.1027H460.75C459.971 75.0695 459.209 74.8509 458.525 74.4638C457.842 74.0767 457.254 73.5317 456.809 72.8715L447.296 58.8148C446.891 58.2555 446.599 57.6179 446.438 56.94C446.276 56.2621 446.249 55.5576 446.357 54.8686C446.465 54.1795 446.707 53.5199 447.068 52.929C447.428 52.3381 447.9 51.8279 448.456 51.4289C449.012 51.0298 449.64 50.7499 450.303 50.606C450.966 50.462 451.65 50.4569 452.314 50.5908C452.979 50.7248 453.611 50.9952 454.173 51.3858C454.734 51.7765 455.213 52.2795 455.582 52.8649L461.356 61.2989L481.364 36.2349C481.834 35.6376 482.428 35.1566 483.103 34.8271C483.777 34.4976 484.515 34.3281 485.261 34.331L485.16 34.3161ZM485.261 31.356C484.089 31.3523 482.93 31.6173 481.869 32.1318C480.808 32.6464 479.871 33.3975 479.126 34.331L461.544 56.3605L458.022 51.1543C456.765 49.5203 454.951 48.4422 452.949 48.1401C450.947 47.8381 448.909 48.3349 447.251 49.5292C445.592 50.7234 444.439 52.525 444.026 54.5659C443.614 56.6069 443.972 58.7332 445.03 60.5106L454.543 74.5821C455.247 75.6143 456.171 76.4662 457.245 77.0723C458.318 77.6783 459.513 78.0223 460.736 78.0777H461.053C462.226 78.0793 463.384 77.8134 464.444 77.299C465.505 76.7846 466.442 76.0346 467.188 75.1027L491.295 44.7284C492.254 43.5309 492.862 42.077 493.049 40.5365C493.236 38.9961 492.994 37.4327 492.35 36.0289C491.707 34.6251 490.689 33.4389 489.416 32.6088C488.143 31.7787 486.667 31.3391 485.16 31.3411L485.261 31.356Z" fill="#263238"/>
</g>
<defs>
<clipPath id="clip0_503_2">
<rect width="500" height="500" fill="white"/>
</clipPath>
</defs>
</svg>
